%TF.GenerationSoftware,KiCad,Pcbnew,(5.1.5)-2*%
%TF.CreationDate,2019-12-04T23:20:31-05:00*%
%TF.ProjectId,fan pcb,66616e20-7063-4622-9e6b-696361645f70,rev?*%
%TF.SameCoordinates,Original*%
%TF.FileFunction,Legend,Top*%
%TF.FilePolarity,Positive*%
%FSLAX46Y46*%
G04 Gerber Fmt 4.6, Leading zero omitted, Abs format (unit mm)*
G04 Created by KiCad (PCBNEW (5.1.5)-2) date 2019-12-04 23:20:31*
%MOMM*%
%LPD*%
G04 APERTURE LIST*
%ADD10C,0.200000*%
%ADD11C,0.250000*%
%ADD12C,0.150000*%
%ADD13C,0.300000*%
%ADD14C,0.120000*%
%ADD15C,0.254000*%
G04 APERTURE END LIST*
D10*
X210000000Y-30000000D02*
X210000000Y-50000000D01*
X50000000Y-30000000D02*
X210000000Y-30000000D01*
X50000000Y-50000000D02*
X50000000Y-30000000D01*
X210000000Y-50000000D02*
X50000000Y-50000000D01*
D11*
X123087619Y-48712380D02*
X123087619Y-47712380D01*
X123468571Y-47712380D01*
X123563809Y-47760000D01*
X123611428Y-47807619D01*
X123659047Y-47902857D01*
X123659047Y-48045714D01*
X123611428Y-48140952D01*
X123563809Y-48188571D01*
X123468571Y-48236190D01*
X123087619Y-48236190D01*
X124278095Y-47712380D02*
X124468571Y-47712380D01*
X124563809Y-47760000D01*
X124659047Y-47855238D01*
X124706666Y-48045714D01*
X124706666Y-48379047D01*
X124659047Y-48569523D01*
X124563809Y-48664761D01*
X124468571Y-48712380D01*
X124278095Y-48712380D01*
X124182857Y-48664761D01*
X124087619Y-48569523D01*
X124040000Y-48379047D01*
X124040000Y-48045714D01*
X124087619Y-47855238D01*
X124182857Y-47760000D01*
X124278095Y-47712380D01*
X124992380Y-47712380D02*
X125325714Y-48712380D01*
X125659047Y-47712380D01*
X126611428Y-48045714D02*
X126992380Y-48045714D01*
X126754285Y-48712380D02*
X126754285Y-47855238D01*
X126801904Y-47760000D01*
X126897142Y-47712380D01*
X126992380Y-47712380D01*
X127754285Y-48712380D02*
X127754285Y-48188571D01*
X127706666Y-48093333D01*
X127611428Y-48045714D01*
X127420952Y-48045714D01*
X127325714Y-48093333D01*
X127754285Y-48664761D02*
X127659047Y-48712380D01*
X127420952Y-48712380D01*
X127325714Y-48664761D01*
X127278095Y-48569523D01*
X127278095Y-48474285D01*
X127325714Y-48379047D01*
X127420952Y-48331428D01*
X127659047Y-48331428D01*
X127754285Y-48283809D01*
X128230476Y-48045714D02*
X128230476Y-48712380D01*
X128230476Y-48140952D02*
X128278095Y-48093333D01*
X128373333Y-48045714D01*
X128516190Y-48045714D01*
X128611428Y-48093333D01*
X128659047Y-48188571D01*
X128659047Y-48712380D01*
X129897142Y-48045714D02*
X129897142Y-49045714D01*
X129897142Y-48093333D02*
X129992380Y-48045714D01*
X130182857Y-48045714D01*
X130278095Y-48093333D01*
X130325714Y-48140952D01*
X130373333Y-48236190D01*
X130373333Y-48521904D01*
X130325714Y-48617142D01*
X130278095Y-48664761D01*
X130182857Y-48712380D01*
X129992380Y-48712380D01*
X129897142Y-48664761D01*
X131230476Y-48664761D02*
X131135238Y-48712380D01*
X130944761Y-48712380D01*
X130849523Y-48664761D01*
X130801904Y-48617142D01*
X130754285Y-48521904D01*
X130754285Y-48236190D01*
X130801904Y-48140952D01*
X130849523Y-48093333D01*
X130944761Y-48045714D01*
X131135238Y-48045714D01*
X131230476Y-48093333D01*
X131659047Y-48712380D02*
X131659047Y-47712380D01*
X131659047Y-48093333D02*
X131754285Y-48045714D01*
X131944761Y-48045714D01*
X132040000Y-48093333D01*
X132087619Y-48140952D01*
X132135238Y-48236190D01*
X132135238Y-48521904D01*
X132087619Y-48617142D01*
X132040000Y-48664761D01*
X131944761Y-48712380D01*
X131754285Y-48712380D01*
X131659047Y-48664761D01*
X133230476Y-48045714D02*
X133468571Y-48712380D01*
X133706666Y-48045714D01*
X134040000Y-47807619D02*
X134087619Y-47760000D01*
X134182857Y-47712380D01*
X134420952Y-47712380D01*
X134516190Y-47760000D01*
X134563809Y-47807619D01*
X134611428Y-47902857D01*
X134611428Y-47998095D01*
X134563809Y-48140952D01*
X133992380Y-48712380D01*
X134611428Y-48712380D01*
X135040000Y-48617142D02*
X135087619Y-48664761D01*
X135040000Y-48712380D01*
X134992380Y-48664761D01*
X135040000Y-48617142D01*
X135040000Y-48712380D01*
X135706666Y-47712380D02*
X135801904Y-47712380D01*
X135897142Y-47760000D01*
X135944761Y-47807619D01*
X135992380Y-47902857D01*
X136040000Y-48093333D01*
X136040000Y-48331428D01*
X135992380Y-48521904D01*
X135944761Y-48617142D01*
X135897142Y-48664761D01*
X135801904Y-48712380D01*
X135706666Y-48712380D01*
X135611428Y-48664761D01*
X135563809Y-48617142D01*
X135516190Y-48521904D01*
X135468571Y-48331428D01*
X135468571Y-48093333D01*
X135516190Y-47902857D01*
X135563809Y-47807619D01*
X135611428Y-47760000D01*
X135706666Y-47712380D01*
D12*
X60311309Y-38822380D02*
X60311309Y-39536666D01*
X60263690Y-39679523D01*
X60168452Y-39774761D01*
X60025595Y-39822380D01*
X59930357Y-39822380D01*
X61263690Y-39822380D02*
X60787500Y-39822380D01*
X60787500Y-38822380D01*
X62168452Y-39727142D02*
X62120833Y-39774761D01*
X61977976Y-39822380D01*
X61882738Y-39822380D01*
X61739880Y-39774761D01*
X61644642Y-39679523D01*
X61597023Y-39584285D01*
X61549404Y-39393809D01*
X61549404Y-39250952D01*
X61597023Y-39060476D01*
X61644642Y-38965238D01*
X61739880Y-38870000D01*
X61882738Y-38822380D01*
X61977976Y-38822380D01*
X62120833Y-38870000D01*
X62168452Y-38917619D01*
X62882738Y-38822380D02*
X62882738Y-39536666D01*
X62835119Y-39679523D01*
X62739880Y-39774761D01*
X62597023Y-39822380D01*
X62501785Y-39822380D01*
X63835119Y-39822380D02*
X63358928Y-39822380D01*
X63358928Y-38822380D01*
X64739880Y-39727142D02*
X64692261Y-39774761D01*
X64549404Y-39822380D01*
X64454166Y-39822380D01*
X64311309Y-39774761D01*
X64216071Y-39679523D01*
X64168452Y-39584285D01*
X64120833Y-39393809D01*
X64120833Y-39250952D01*
X64168452Y-39060476D01*
X64216071Y-38965238D01*
X64311309Y-38870000D01*
X64454166Y-38822380D01*
X64549404Y-38822380D01*
X64692261Y-38870000D01*
X64739880Y-38917619D01*
X65454166Y-38822380D02*
X65454166Y-39536666D01*
X65406547Y-39679523D01*
X65311309Y-39774761D01*
X65168452Y-39822380D01*
X65073214Y-39822380D01*
X66406547Y-39822380D02*
X65930357Y-39822380D01*
X65930357Y-38822380D01*
X67311309Y-39727142D02*
X67263690Y-39774761D01*
X67120833Y-39822380D01*
X67025595Y-39822380D01*
X66882738Y-39774761D01*
X66787500Y-39679523D01*
X66739880Y-39584285D01*
X66692261Y-39393809D01*
X66692261Y-39250952D01*
X66739880Y-39060476D01*
X66787500Y-38965238D01*
X66882738Y-38870000D01*
X67025595Y-38822380D01*
X67120833Y-38822380D01*
X67263690Y-38870000D01*
X67311309Y-38917619D01*
X68025595Y-38822380D02*
X68025595Y-39536666D01*
X67977976Y-39679523D01*
X67882738Y-39774761D01*
X67739880Y-39822380D01*
X67644642Y-39822380D01*
X68977976Y-39822380D02*
X68501785Y-39822380D01*
X68501785Y-38822380D01*
X69882738Y-39727142D02*
X69835119Y-39774761D01*
X69692261Y-39822380D01*
X69597023Y-39822380D01*
X69454166Y-39774761D01*
X69358928Y-39679523D01*
X69311309Y-39584285D01*
X69263690Y-39393809D01*
X69263690Y-39250952D01*
X69311309Y-39060476D01*
X69358928Y-38965238D01*
X69454166Y-38870000D01*
X69597023Y-38822380D01*
X69692261Y-38822380D01*
X69835119Y-38870000D01*
X69882738Y-38917619D01*
D13*
X111827857Y-38620000D02*
X111685000Y-38548571D01*
X111470714Y-38548571D01*
X111256428Y-38620000D01*
X111113571Y-38762857D01*
X111042142Y-38905714D01*
X110970714Y-39191428D01*
X110970714Y-39405714D01*
X111042142Y-39691428D01*
X111113571Y-39834285D01*
X111256428Y-39977142D01*
X111470714Y-40048571D01*
X111613571Y-40048571D01*
X111827857Y-39977142D01*
X111899285Y-39905714D01*
X111899285Y-39405714D01*
X111613571Y-39405714D01*
X112542142Y-40048571D02*
X112542142Y-38548571D01*
X113399285Y-40048571D01*
X113399285Y-38548571D01*
X114113571Y-40048571D02*
X114113571Y-38548571D01*
X114470714Y-38548571D01*
X114685000Y-38620000D01*
X114827857Y-38762857D01*
X114899285Y-38905714D01*
X114970714Y-39191428D01*
X114970714Y-39405714D01*
X114899285Y-39691428D01*
X114827857Y-39834285D01*
X114685000Y-39977142D01*
X114470714Y-40048571D01*
X114113571Y-40048571D01*
X111756428Y-41088571D02*
X111042142Y-41088571D01*
X110970714Y-41802857D01*
X111042142Y-41731428D01*
X111185000Y-41660000D01*
X111542142Y-41660000D01*
X111685000Y-41731428D01*
X111756428Y-41802857D01*
X111827857Y-41945714D01*
X111827857Y-42302857D01*
X111756428Y-42445714D01*
X111685000Y-42517142D01*
X111542142Y-42588571D01*
X111185000Y-42588571D01*
X111042142Y-42517142D01*
X110970714Y-42445714D01*
X112327857Y-41588571D02*
X112685000Y-42588571D01*
X113042142Y-41588571D01*
D14*
X97850000Y-47550000D02*
X96520000Y-47550000D01*
X97850000Y-46220000D02*
X97850000Y-47550000D01*
X97850000Y-44950000D02*
X95190000Y-44950000D01*
X95190000Y-44950000D02*
X95190000Y-32190000D01*
X97850000Y-44950000D02*
X97850000Y-32190000D01*
X97850000Y-32190000D02*
X95190000Y-32190000D01*
X50740000Y-32190000D02*
X52070000Y-32190000D01*
X50740000Y-33520000D02*
X50740000Y-32190000D01*
X50740000Y-34790000D02*
X53400000Y-34790000D01*
X53400000Y-34790000D02*
X53400000Y-47550000D01*
X50740000Y-34790000D02*
X50740000Y-47550000D01*
X50740000Y-47550000D02*
X53400000Y-47550000D01*
D10*
X91440000Y-43116000D02*
X91440000Y-35624000D01*
X55880000Y-43918000D02*
X55880000Y-35624000D01*
D14*
X55880000Y-38100000D02*
G75*
G02X55880000Y-40640000I0J-1270000D01*
G01*
X63337221Y-32760000D02*
X63662779Y-32760000D01*
X63337221Y-31740000D02*
X63662779Y-31740000D01*
X57469721Y-32760000D02*
X57795279Y-32760000D01*
X57469721Y-31740000D02*
X57795279Y-31740000D01*
X201890000Y-42070000D02*
X196890000Y-42070000D01*
X195790000Y-37770000D02*
X195790000Y-36670000D01*
X195790000Y-36670000D02*
X201890000Y-36670000D01*
X193000000Y-42070000D02*
X188000000Y-42070000D01*
X186900000Y-37770000D02*
X186900000Y-36670000D01*
X186900000Y-36670000D02*
X193000000Y-36670000D01*
X107890000Y-43240000D02*
X110550000Y-43240000D01*
X107890000Y-40640000D02*
X107890000Y-43240000D01*
X110550000Y-40640000D02*
X110550000Y-43240000D01*
X107890000Y-40640000D02*
X110550000Y-40640000D01*
X107890000Y-39370000D02*
X107890000Y-38040000D01*
X107890000Y-38040000D02*
X109220000Y-38040000D01*
X207630000Y-37250000D02*
X208580000Y-37250000D01*
X208580000Y-41500000D02*
X207630000Y-41500000D01*
X209380000Y-40650000D02*
X209380000Y-38050000D01*
X209380000Y-38050000D02*
X209130000Y-37800000D01*
X208730000Y-37400000D02*
X208580000Y-37250000D01*
X209380000Y-40650000D02*
X209130000Y-40900000D01*
X208730000Y-41350000D02*
X208580000Y-41500000D01*
X184110000Y-42070000D02*
X179110000Y-42070000D01*
X178010000Y-37770000D02*
X178010000Y-36670000D01*
X178010000Y-36670000D02*
X184110000Y-36670000D01*
X175220000Y-42070000D02*
X170220000Y-42070000D01*
X169120000Y-37770000D02*
X169120000Y-36670000D01*
X169120000Y-36670000D02*
X175220000Y-36670000D01*
X166330000Y-42070000D02*
X161330000Y-42070000D01*
X160230000Y-37770000D02*
X160230000Y-36670000D01*
X160230000Y-36670000D02*
X166330000Y-36670000D01*
X157580000Y-42070000D02*
X152580000Y-42070000D01*
X151480000Y-37770000D02*
X151480000Y-36670000D01*
X151480000Y-36670000D02*
X157580000Y-36670000D01*
X148690000Y-42070000D02*
X143690000Y-42070000D01*
X142590000Y-37770000D02*
X142590000Y-36670000D01*
X142590000Y-36670000D02*
X148690000Y-36670000D01*
D12*
X128666666Y-33052380D02*
X128333333Y-32576190D01*
X128095238Y-33052380D02*
X128095238Y-32052380D01*
X128476190Y-32052380D01*
X128571428Y-32100000D01*
X128619047Y-32147619D01*
X128666666Y-32242857D01*
X128666666Y-32385714D01*
X128619047Y-32480952D01*
X128571428Y-32528571D01*
X128476190Y-32576190D01*
X128095238Y-32576190D01*
X129095238Y-32528571D02*
X129428571Y-32528571D01*
X129571428Y-33052380D02*
X129095238Y-33052380D01*
X129095238Y-32052380D01*
X129571428Y-32052380D01*
X130333333Y-32528571D02*
X130000000Y-32528571D01*
X130000000Y-33052380D02*
X130000000Y-32052380D01*
X130476190Y-32052380D01*
X131000000Y-32052380D02*
X131000000Y-32290476D01*
X130761904Y-32195238D02*
X131000000Y-32290476D01*
X131238095Y-32195238D01*
X130857142Y-32480952D02*
X131000000Y-32290476D01*
X131142857Y-32480952D01*
X131761904Y-32052380D02*
X131761904Y-32290476D01*
X131523809Y-32195238D02*
X131761904Y-32290476D01*
X132000000Y-32195238D01*
X131619047Y-32480952D02*
X131761904Y-32290476D01*
X131904761Y-32480952D01*
X95758095Y-30567380D02*
X95758095Y-31376904D01*
X95805714Y-31472142D01*
X95853333Y-31519761D01*
X95948571Y-31567380D01*
X96139047Y-31567380D01*
X96234285Y-31519761D01*
X96281904Y-31472142D01*
X96329523Y-31376904D01*
X96329523Y-30567380D01*
X96758095Y-30662619D02*
X96805714Y-30615000D01*
X96900952Y-30567380D01*
X97139047Y-30567380D01*
X97234285Y-30615000D01*
X97281904Y-30662619D01*
X97329523Y-30757857D01*
X97329523Y-30853095D01*
X97281904Y-30995952D01*
X96710476Y-31567380D01*
X97329523Y-31567380D01*
X51308095Y-31567380D02*
X51308095Y-30567380D01*
X51308095Y-31043571D02*
X51879523Y-31043571D01*
X51879523Y-31567380D02*
X51879523Y-30567380D01*
X52879523Y-31567380D02*
X52308095Y-31567380D01*
X52593809Y-31567380D02*
X52593809Y-30567380D01*
X52498571Y-30710238D01*
X52403333Y-30805476D01*
X52308095Y-30853095D01*
D15*
X74234523Y-40609761D02*
X72964523Y-40609761D01*
X74113571Y-39279285D02*
X74174047Y-39339761D01*
X74234523Y-39521190D01*
X74234523Y-39642142D01*
X74174047Y-39823571D01*
X74053095Y-39944523D01*
X73932142Y-40005000D01*
X73690238Y-40065476D01*
X73508809Y-40065476D01*
X73266904Y-40005000D01*
X73145952Y-39944523D01*
X73025000Y-39823571D01*
X72964523Y-39642142D01*
X72964523Y-39521190D01*
X73025000Y-39339761D01*
X73085476Y-39279285D01*
X74234523Y-38069761D02*
X74234523Y-38795476D01*
X74234523Y-38432619D02*
X72964523Y-38432619D01*
X73145952Y-38553571D01*
X73266904Y-38674523D01*
X73327380Y-38795476D01*
D12*
X63333333Y-31272380D02*
X63000000Y-30796190D01*
X62761904Y-31272380D02*
X62761904Y-30272380D01*
X63142857Y-30272380D01*
X63238095Y-30320000D01*
X63285714Y-30367619D01*
X63333333Y-30462857D01*
X63333333Y-30605714D01*
X63285714Y-30700952D01*
X63238095Y-30748571D01*
X63142857Y-30796190D01*
X62761904Y-30796190D01*
X64285714Y-31272380D02*
X63714285Y-31272380D01*
X64000000Y-31272380D02*
X64000000Y-30272380D01*
X63904761Y-30415238D01*
X63809523Y-30510476D01*
X63714285Y-30558095D01*
X62904761Y-34132380D02*
X62333333Y-34132380D01*
X62619047Y-34132380D02*
X62619047Y-33132380D01*
X62523809Y-33275238D01*
X62428571Y-33370476D01*
X62333333Y-33418095D01*
X63523809Y-33132380D02*
X63619047Y-33132380D01*
X63714285Y-33180000D01*
X63761904Y-33227619D01*
X63809523Y-33322857D01*
X63857142Y-33513333D01*
X63857142Y-33751428D01*
X63809523Y-33941904D01*
X63761904Y-34037142D01*
X63714285Y-34084761D01*
X63619047Y-34132380D01*
X63523809Y-34132380D01*
X63428571Y-34084761D01*
X63380952Y-34037142D01*
X63333333Y-33941904D01*
X63285714Y-33751428D01*
X63285714Y-33513333D01*
X63333333Y-33322857D01*
X63380952Y-33227619D01*
X63428571Y-33180000D01*
X63523809Y-33132380D01*
X64285714Y-34132380D02*
X64285714Y-33132380D01*
X64380952Y-33751428D02*
X64666666Y-34132380D01*
X64666666Y-33465714D02*
X64285714Y-33846666D01*
X57465833Y-31177142D02*
X57418214Y-31224761D01*
X57275357Y-31272380D01*
X57180119Y-31272380D01*
X57037261Y-31224761D01*
X56942023Y-31129523D01*
X56894404Y-31034285D01*
X56846785Y-30843809D01*
X56846785Y-30700952D01*
X56894404Y-30510476D01*
X56942023Y-30415238D01*
X57037261Y-30320000D01*
X57180119Y-30272380D01*
X57275357Y-30272380D01*
X57418214Y-30320000D01*
X57465833Y-30367619D01*
X58418214Y-31272380D02*
X57846785Y-31272380D01*
X58132500Y-31272380D02*
X58132500Y-30272380D01*
X58037261Y-30415238D01*
X57942023Y-30510476D01*
X57846785Y-30558095D01*
X56418214Y-34037142D02*
X56465833Y-34084761D01*
X56418214Y-34132380D01*
X56370595Y-34084761D01*
X56418214Y-34037142D01*
X56418214Y-34132380D01*
X57418214Y-34132380D02*
X56846785Y-34132380D01*
X57132500Y-34132380D02*
X57132500Y-33132380D01*
X57037261Y-33275238D01*
X56942023Y-33370476D01*
X56846785Y-33418095D01*
X58275357Y-33465714D02*
X58275357Y-34132380D01*
X57846785Y-33465714D02*
X57846785Y-33989523D01*
X57894404Y-34084761D01*
X57989642Y-34132380D01*
X58132500Y-34132380D01*
X58227738Y-34084761D01*
X58275357Y-34037142D01*
X58608690Y-33465714D02*
X58989642Y-33465714D01*
X58751547Y-34132380D02*
X58751547Y-33275238D01*
X58799166Y-33180000D01*
X58894404Y-33132380D01*
X58989642Y-33132380D01*
X198651904Y-36322380D02*
X198651904Y-35322380D01*
X198890000Y-35322380D01*
X199032857Y-35370000D01*
X199128095Y-35465238D01*
X199175714Y-35560476D01*
X199223333Y-35750952D01*
X199223333Y-35893809D01*
X199175714Y-36084285D01*
X199128095Y-36179523D01*
X199032857Y-36274761D01*
X198890000Y-36322380D01*
X198651904Y-36322380D01*
X199556666Y-35322380D02*
X200223333Y-35322380D01*
X199794761Y-36322380D01*
X189761904Y-36322380D02*
X189761904Y-35322380D01*
X190000000Y-35322380D01*
X190142857Y-35370000D01*
X190238095Y-35465238D01*
X190285714Y-35560476D01*
X190333333Y-35750952D01*
X190333333Y-35893809D01*
X190285714Y-36084285D01*
X190238095Y-36179523D01*
X190142857Y-36274761D01*
X190000000Y-36322380D01*
X189761904Y-36322380D01*
X191190476Y-35322380D02*
X191000000Y-35322380D01*
X190904761Y-35370000D01*
X190857142Y-35417619D01*
X190761904Y-35560476D01*
X190714285Y-35750952D01*
X190714285Y-36131904D01*
X190761904Y-36227142D01*
X190809523Y-36274761D01*
X190904761Y-36322380D01*
X191095238Y-36322380D01*
X191190476Y-36274761D01*
X191238095Y-36227142D01*
X191285714Y-36131904D01*
X191285714Y-35893809D01*
X191238095Y-35798571D01*
X191190476Y-35750952D01*
X191095238Y-35703333D01*
X190904761Y-35703333D01*
X190809523Y-35750952D01*
X190761904Y-35798571D01*
X190714285Y-35893809D01*
X108886666Y-36492380D02*
X108886666Y-37206666D01*
X108839047Y-37349523D01*
X108743809Y-37444761D01*
X108600952Y-37492380D01*
X108505714Y-37492380D01*
X109886666Y-37492380D02*
X109315238Y-37492380D01*
X109600952Y-37492380D02*
X109600952Y-36492380D01*
X109505714Y-36635238D01*
X109410476Y-36730476D01*
X109315238Y-36778095D01*
X206282380Y-40131904D02*
X207091904Y-40131904D01*
X207187142Y-40084285D01*
X207234761Y-40036666D01*
X207282380Y-39941428D01*
X207282380Y-39750952D01*
X207234761Y-39655714D01*
X207187142Y-39608095D01*
X207091904Y-39560476D01*
X206282380Y-39560476D01*
X207282380Y-38560476D02*
X207282380Y-39131904D01*
X207282380Y-38846190D02*
X206282380Y-38846190D01*
X206425238Y-38941428D01*
X206520476Y-39036666D01*
X206568095Y-39131904D01*
X180871904Y-36322380D02*
X180871904Y-35322380D01*
X181110000Y-35322380D01*
X181252857Y-35370000D01*
X181348095Y-35465238D01*
X181395714Y-35560476D01*
X181443333Y-35750952D01*
X181443333Y-35893809D01*
X181395714Y-36084285D01*
X181348095Y-36179523D01*
X181252857Y-36274761D01*
X181110000Y-36322380D01*
X180871904Y-36322380D01*
X182348095Y-35322380D02*
X181871904Y-35322380D01*
X181824285Y-35798571D01*
X181871904Y-35750952D01*
X181967142Y-35703333D01*
X182205238Y-35703333D01*
X182300476Y-35750952D01*
X182348095Y-35798571D01*
X182395714Y-35893809D01*
X182395714Y-36131904D01*
X182348095Y-36227142D01*
X182300476Y-36274761D01*
X182205238Y-36322380D01*
X181967142Y-36322380D01*
X181871904Y-36274761D01*
X181824285Y-36227142D01*
X171981904Y-36322380D02*
X171981904Y-35322380D01*
X172220000Y-35322380D01*
X172362857Y-35370000D01*
X172458095Y-35465238D01*
X172505714Y-35560476D01*
X172553333Y-35750952D01*
X172553333Y-35893809D01*
X172505714Y-36084285D01*
X172458095Y-36179523D01*
X172362857Y-36274761D01*
X172220000Y-36322380D01*
X171981904Y-36322380D01*
X173410476Y-35655714D02*
X173410476Y-36322380D01*
X173172380Y-35274761D02*
X172934285Y-35989047D01*
X173553333Y-35989047D01*
X163091904Y-36322380D02*
X163091904Y-35322380D01*
X163330000Y-35322380D01*
X163472857Y-35370000D01*
X163568095Y-35465238D01*
X163615714Y-35560476D01*
X163663333Y-35750952D01*
X163663333Y-35893809D01*
X163615714Y-36084285D01*
X163568095Y-36179523D01*
X163472857Y-36274761D01*
X163330000Y-36322380D01*
X163091904Y-36322380D01*
X163996666Y-35322380D02*
X164615714Y-35322380D01*
X164282380Y-35703333D01*
X164425238Y-35703333D01*
X164520476Y-35750952D01*
X164568095Y-35798571D01*
X164615714Y-35893809D01*
X164615714Y-36131904D01*
X164568095Y-36227142D01*
X164520476Y-36274761D01*
X164425238Y-36322380D01*
X164139523Y-36322380D01*
X164044285Y-36274761D01*
X163996666Y-36227142D01*
X154341904Y-36322380D02*
X154341904Y-35322380D01*
X154580000Y-35322380D01*
X154722857Y-35370000D01*
X154818095Y-35465238D01*
X154865714Y-35560476D01*
X154913333Y-35750952D01*
X154913333Y-35893809D01*
X154865714Y-36084285D01*
X154818095Y-36179523D01*
X154722857Y-36274761D01*
X154580000Y-36322380D01*
X154341904Y-36322380D01*
X155294285Y-35417619D02*
X155341904Y-35370000D01*
X155437142Y-35322380D01*
X155675238Y-35322380D01*
X155770476Y-35370000D01*
X155818095Y-35417619D01*
X155865714Y-35512857D01*
X155865714Y-35608095D01*
X155818095Y-35750952D01*
X155246666Y-36322380D01*
X155865714Y-36322380D01*
X145451904Y-36322380D02*
X145451904Y-35322380D01*
X145690000Y-35322380D01*
X145832857Y-35370000D01*
X145928095Y-35465238D01*
X145975714Y-35560476D01*
X146023333Y-35750952D01*
X146023333Y-35893809D01*
X145975714Y-36084285D01*
X145928095Y-36179523D01*
X145832857Y-36274761D01*
X145690000Y-36322380D01*
X145451904Y-36322380D01*
X146975714Y-36322380D02*
X146404285Y-36322380D01*
X146690000Y-36322380D02*
X146690000Y-35322380D01*
X146594761Y-35465238D01*
X146499523Y-35560476D01*
X146404285Y-35608095D01*
M02*
