%TF.GenerationSoftware,KiCad,Pcbnew,(5.1.5)-2*%
%TF.CreationDate,2019-12-04T23:20:31-05:00*%
%TF.ProjectId,fan pcb,66616e20-7063-4622-9e6b-696361645f70,rev?*%
%TF.SameCoordinates,Original*%
%TF.FileFunction,Soldermask,Top*%
%TF.FilePolarity,Negative*%
%FSLAX46Y46*%
G04 Gerber Fmt 4.6, Leading zero omitted, Abs format (unit mm)*
G04 Created by KiCad (PCBNEW (5.1.5)-2) date 2019-12-04 23:20:31*
%MOMM*%
%LPD*%
G04 APERTURE LIST*
%ADD10C,0.200000*%
%ADD11C,0.100000*%
G04 APERTURE END LIST*
D10*
X210000000Y-30000000D02*
X210000000Y-50000000D01*
X50000000Y-30000000D02*
X210000000Y-30000000D01*
X50000000Y-50000000D02*
X50000000Y-30000000D01*
X210000000Y-50000000D02*
X50000000Y-50000000D01*
D11*
G36*
X97421000Y-47121000D02*
G01*
X95619000Y-47121000D01*
X95619000Y-45319000D01*
X97421000Y-45319000D01*
X97421000Y-47121000D01*
G37*
G36*
X52183512Y-45323927D02*
G01*
X52332812Y-45353624D01*
X52496784Y-45421544D01*
X52644354Y-45520147D01*
X52769853Y-45645646D01*
X52868456Y-45793216D01*
X52936376Y-45957188D01*
X52971000Y-46131259D01*
X52971000Y-46308741D01*
X52936376Y-46482812D01*
X52868456Y-46646784D01*
X52769853Y-46794354D01*
X52644354Y-46919853D01*
X52496784Y-47018456D01*
X52332812Y-47086376D01*
X52183512Y-47116073D01*
X52158742Y-47121000D01*
X51981258Y-47121000D01*
X51956488Y-47116073D01*
X51807188Y-47086376D01*
X51643216Y-47018456D01*
X51495646Y-46919853D01*
X51370147Y-46794354D01*
X51271544Y-46646784D01*
X51203624Y-46482812D01*
X51169000Y-46308741D01*
X51169000Y-46131259D01*
X51203624Y-45957188D01*
X51271544Y-45793216D01*
X51370147Y-45645646D01*
X51495646Y-45520147D01*
X51643216Y-45421544D01*
X51807188Y-45353624D01*
X51956488Y-45323927D01*
X51981258Y-45319000D01*
X52158742Y-45319000D01*
X52183512Y-45323927D01*
G37*
G36*
X52165066Y-42780258D02*
G01*
X52332812Y-42813624D01*
X52496784Y-42881544D01*
X52644354Y-42980147D01*
X52769853Y-43105646D01*
X52868456Y-43253216D01*
X52936376Y-43417188D01*
X52971000Y-43591259D01*
X52971000Y-43768741D01*
X52936376Y-43942812D01*
X52868456Y-44106784D01*
X52769853Y-44254354D01*
X52644354Y-44379853D01*
X52496784Y-44478456D01*
X52332812Y-44546376D01*
X52183512Y-44576073D01*
X52158742Y-44581000D01*
X51981258Y-44581000D01*
X51956488Y-44576073D01*
X51807188Y-44546376D01*
X51643216Y-44478456D01*
X51495646Y-44379853D01*
X51370147Y-44254354D01*
X51271544Y-44106784D01*
X51203624Y-43942812D01*
X51169000Y-43768741D01*
X51169000Y-43591259D01*
X51203624Y-43417188D01*
X51271544Y-43253216D01*
X51370147Y-43105646D01*
X51495646Y-42980147D01*
X51643216Y-42881544D01*
X51807188Y-42813624D01*
X51974934Y-42780258D01*
X51981258Y-42779000D01*
X52158742Y-42779000D01*
X52165066Y-42780258D01*
G37*
G36*
X96615066Y-42780258D02*
G01*
X96782812Y-42813624D01*
X96946784Y-42881544D01*
X97094354Y-42980147D01*
X97219853Y-43105646D01*
X97318456Y-43253216D01*
X97386376Y-43417188D01*
X97421000Y-43591259D01*
X97421000Y-43768741D01*
X97386376Y-43942812D01*
X97318456Y-44106784D01*
X97219853Y-44254354D01*
X97094354Y-44379853D01*
X96946784Y-44478456D01*
X96782812Y-44546376D01*
X96633512Y-44576073D01*
X96608742Y-44581000D01*
X96431258Y-44581000D01*
X96406488Y-44576073D01*
X96257188Y-44546376D01*
X96093216Y-44478456D01*
X95945646Y-44379853D01*
X95820147Y-44254354D01*
X95721544Y-44106784D01*
X95653624Y-43942812D01*
X95619000Y-43768741D01*
X95619000Y-43591259D01*
X95653624Y-43417188D01*
X95721544Y-43253216D01*
X95820147Y-43105646D01*
X95945646Y-42980147D01*
X96093216Y-42881544D01*
X96257188Y-42813624D01*
X96424934Y-42780258D01*
X96431258Y-42779000D01*
X96608742Y-42779000D01*
X96615066Y-42780258D01*
G37*
G36*
X85273910Y-42732729D02*
G01*
X85388655Y-42780258D01*
X85491918Y-42849256D01*
X85579744Y-42937082D01*
X85648742Y-43040345D01*
X85696271Y-43155090D01*
X85720500Y-43276900D01*
X85720500Y-43401100D01*
X85696271Y-43522910D01*
X85648742Y-43637655D01*
X85579744Y-43740918D01*
X85491918Y-43828744D01*
X85388655Y-43897742D01*
X85273910Y-43945271D01*
X85152100Y-43969500D01*
X85027900Y-43969500D01*
X84906090Y-43945271D01*
X84791345Y-43897742D01*
X84688082Y-43828744D01*
X84600256Y-43740918D01*
X84531258Y-43637655D01*
X84483729Y-43522910D01*
X84459500Y-43401100D01*
X84459500Y-43276900D01*
X84483729Y-43155090D01*
X84531258Y-43040345D01*
X84600256Y-42937082D01*
X84688082Y-42849256D01*
X84791345Y-42780258D01*
X84906090Y-42732729D01*
X85027900Y-42708500D01*
X85152100Y-42708500D01*
X85273910Y-42732729D01*
G37*
G36*
X80193910Y-42732729D02*
G01*
X80308655Y-42780258D01*
X80411918Y-42849256D01*
X80499744Y-42937082D01*
X80568742Y-43040345D01*
X80616271Y-43155090D01*
X80640500Y-43276900D01*
X80640500Y-43401100D01*
X80616271Y-43522910D01*
X80568742Y-43637655D01*
X80499744Y-43740918D01*
X80411918Y-43828744D01*
X80308655Y-43897742D01*
X80193910Y-43945271D01*
X80072100Y-43969500D01*
X79947900Y-43969500D01*
X79826090Y-43945271D01*
X79711345Y-43897742D01*
X79608082Y-43828744D01*
X79520256Y-43740918D01*
X79451258Y-43637655D01*
X79403729Y-43522910D01*
X79379500Y-43401100D01*
X79379500Y-43276900D01*
X79403729Y-43155090D01*
X79451258Y-43040345D01*
X79520256Y-42937082D01*
X79608082Y-42849256D01*
X79711345Y-42780258D01*
X79826090Y-42732729D01*
X79947900Y-42708500D01*
X80072100Y-42708500D01*
X80193910Y-42732729D01*
G37*
G36*
X82733910Y-42732729D02*
G01*
X82848655Y-42780258D01*
X82951918Y-42849256D01*
X83039744Y-42937082D01*
X83108742Y-43040345D01*
X83156271Y-43155090D01*
X83180500Y-43276900D01*
X83180500Y-43401100D01*
X83156271Y-43522910D01*
X83108742Y-43637655D01*
X83039744Y-43740918D01*
X82951918Y-43828744D01*
X82848655Y-43897742D01*
X82733910Y-43945271D01*
X82612100Y-43969500D01*
X82487900Y-43969500D01*
X82366090Y-43945271D01*
X82251345Y-43897742D01*
X82148082Y-43828744D01*
X82060256Y-43740918D01*
X81991258Y-43637655D01*
X81943729Y-43522910D01*
X81919500Y-43401100D01*
X81919500Y-43276900D01*
X81943729Y-43155090D01*
X81991258Y-43040345D01*
X82060256Y-42937082D01*
X82148082Y-42849256D01*
X82251345Y-42780258D01*
X82366090Y-42732729D01*
X82487900Y-42708500D01*
X82612100Y-42708500D01*
X82733910Y-42732729D01*
G37*
G36*
X87813910Y-42732729D02*
G01*
X87928655Y-42780258D01*
X88031918Y-42849256D01*
X88119744Y-42937082D01*
X88188742Y-43040345D01*
X88236271Y-43155090D01*
X88260500Y-43276900D01*
X88260500Y-43401100D01*
X88236271Y-43522910D01*
X88188742Y-43637655D01*
X88119744Y-43740918D01*
X88031918Y-43828744D01*
X87928655Y-43897742D01*
X87813910Y-43945271D01*
X87692100Y-43969500D01*
X87567900Y-43969500D01*
X87446090Y-43945271D01*
X87331345Y-43897742D01*
X87228082Y-43828744D01*
X87140256Y-43740918D01*
X87071258Y-43637655D01*
X87023729Y-43522910D01*
X86999500Y-43401100D01*
X86999500Y-43276900D01*
X87023729Y-43155090D01*
X87071258Y-43040345D01*
X87140256Y-42937082D01*
X87228082Y-42849256D01*
X87331345Y-42780258D01*
X87446090Y-42732729D01*
X87567900Y-42708500D01*
X87692100Y-42708500D01*
X87813910Y-42732729D01*
G37*
G36*
X90353910Y-42732729D02*
G01*
X90468655Y-42780258D01*
X90571918Y-42849256D01*
X90659744Y-42937082D01*
X90728742Y-43040345D01*
X90776271Y-43155090D01*
X90800500Y-43276900D01*
X90800500Y-43401100D01*
X90776271Y-43522910D01*
X90728742Y-43637655D01*
X90659744Y-43740918D01*
X90571918Y-43828744D01*
X90468655Y-43897742D01*
X90353910Y-43945271D01*
X90232100Y-43969500D01*
X90107900Y-43969500D01*
X89986090Y-43945271D01*
X89871345Y-43897742D01*
X89768082Y-43828744D01*
X89680256Y-43740918D01*
X89611258Y-43637655D01*
X89563729Y-43522910D01*
X89539500Y-43401100D01*
X89539500Y-43276900D01*
X89563729Y-43155090D01*
X89611258Y-43040345D01*
X89680256Y-42937082D01*
X89768082Y-42849256D01*
X89871345Y-42780258D01*
X89986090Y-42732729D01*
X90107900Y-42708500D01*
X90232100Y-42708500D01*
X90353910Y-42732729D01*
G37*
G36*
X72573910Y-42732729D02*
G01*
X72688655Y-42780258D01*
X72791918Y-42849256D01*
X72879744Y-42937082D01*
X72948742Y-43040345D01*
X72996271Y-43155090D01*
X73020500Y-43276900D01*
X73020500Y-43401100D01*
X72996271Y-43522910D01*
X72948742Y-43637655D01*
X72879744Y-43740918D01*
X72791918Y-43828744D01*
X72688655Y-43897742D01*
X72573910Y-43945271D01*
X72452100Y-43969500D01*
X72327900Y-43969500D01*
X72206090Y-43945271D01*
X72091345Y-43897742D01*
X71988082Y-43828744D01*
X71900256Y-43740918D01*
X71831258Y-43637655D01*
X71783729Y-43522910D01*
X71759500Y-43401100D01*
X71759500Y-43276900D01*
X71783729Y-43155090D01*
X71831258Y-43040345D01*
X71900256Y-42937082D01*
X71988082Y-42849256D01*
X72091345Y-42780258D01*
X72206090Y-42732729D01*
X72327900Y-42708500D01*
X72452100Y-42708500D01*
X72573910Y-42732729D01*
G37*
G36*
X70033910Y-42732729D02*
G01*
X70148655Y-42780258D01*
X70251918Y-42849256D01*
X70339744Y-42937082D01*
X70408742Y-43040345D01*
X70456271Y-43155090D01*
X70480500Y-43276900D01*
X70480500Y-43401100D01*
X70456271Y-43522910D01*
X70408742Y-43637655D01*
X70339744Y-43740918D01*
X70251918Y-43828744D01*
X70148655Y-43897742D01*
X70033910Y-43945271D01*
X69912100Y-43969500D01*
X69787900Y-43969500D01*
X69666090Y-43945271D01*
X69551345Y-43897742D01*
X69448082Y-43828744D01*
X69360256Y-43740918D01*
X69291258Y-43637655D01*
X69243729Y-43522910D01*
X69219500Y-43401100D01*
X69219500Y-43276900D01*
X69243729Y-43155090D01*
X69291258Y-43040345D01*
X69360256Y-42937082D01*
X69448082Y-42849256D01*
X69551345Y-42780258D01*
X69666090Y-42732729D01*
X69787900Y-42708500D01*
X69912100Y-42708500D01*
X70033910Y-42732729D01*
G37*
G36*
X77653910Y-42732729D02*
G01*
X77768655Y-42780258D01*
X77871918Y-42849256D01*
X77959744Y-42937082D01*
X78028742Y-43040345D01*
X78076271Y-43155090D01*
X78100500Y-43276900D01*
X78100500Y-43401100D01*
X78076271Y-43522910D01*
X78028742Y-43637655D01*
X77959744Y-43740918D01*
X77871918Y-43828744D01*
X77768655Y-43897742D01*
X77653910Y-43945271D01*
X77532100Y-43969500D01*
X77407900Y-43969500D01*
X77286090Y-43945271D01*
X77171345Y-43897742D01*
X77068082Y-43828744D01*
X76980256Y-43740918D01*
X76911258Y-43637655D01*
X76863729Y-43522910D01*
X76839500Y-43401100D01*
X76839500Y-43276900D01*
X76863729Y-43155090D01*
X76911258Y-43040345D01*
X76980256Y-42937082D01*
X77068082Y-42849256D01*
X77171345Y-42780258D01*
X77286090Y-42732729D01*
X77407900Y-42708500D01*
X77532100Y-42708500D01*
X77653910Y-42732729D01*
G37*
G36*
X62413910Y-42732729D02*
G01*
X62528655Y-42780258D01*
X62631918Y-42849256D01*
X62719744Y-42937082D01*
X62788742Y-43040345D01*
X62836271Y-43155090D01*
X62860500Y-43276900D01*
X62860500Y-43401100D01*
X62836271Y-43522910D01*
X62788742Y-43637655D01*
X62719744Y-43740918D01*
X62631918Y-43828744D01*
X62528655Y-43897742D01*
X62413910Y-43945271D01*
X62292100Y-43969500D01*
X62167900Y-43969500D01*
X62046090Y-43945271D01*
X61931345Y-43897742D01*
X61828082Y-43828744D01*
X61740256Y-43740918D01*
X61671258Y-43637655D01*
X61623729Y-43522910D01*
X61599500Y-43401100D01*
X61599500Y-43276900D01*
X61623729Y-43155090D01*
X61671258Y-43040345D01*
X61740256Y-42937082D01*
X61828082Y-42849256D01*
X61931345Y-42780258D01*
X62046090Y-42732729D01*
X62167900Y-42708500D01*
X62292100Y-42708500D01*
X62413910Y-42732729D01*
G37*
G36*
X59873910Y-42732729D02*
G01*
X59988655Y-42780258D01*
X60091918Y-42849256D01*
X60179744Y-42937082D01*
X60248742Y-43040345D01*
X60296271Y-43155090D01*
X60320500Y-43276900D01*
X60320500Y-43401100D01*
X60296271Y-43522910D01*
X60248742Y-43637655D01*
X60179744Y-43740918D01*
X60091918Y-43828744D01*
X59988655Y-43897742D01*
X59873910Y-43945271D01*
X59752100Y-43969500D01*
X59627900Y-43969500D01*
X59506090Y-43945271D01*
X59391345Y-43897742D01*
X59288082Y-43828744D01*
X59200256Y-43740918D01*
X59131258Y-43637655D01*
X59083729Y-43522910D01*
X59059500Y-43401100D01*
X59059500Y-43276900D01*
X59083729Y-43155090D01*
X59131258Y-43040345D01*
X59200256Y-42937082D01*
X59288082Y-42849256D01*
X59391345Y-42780258D01*
X59506090Y-42732729D01*
X59627900Y-42708500D01*
X59752100Y-42708500D01*
X59873910Y-42732729D01*
G37*
G36*
X64953910Y-42732729D02*
G01*
X65068655Y-42780258D01*
X65171918Y-42849256D01*
X65259744Y-42937082D01*
X65328742Y-43040345D01*
X65376271Y-43155090D01*
X65400500Y-43276900D01*
X65400500Y-43401100D01*
X65376271Y-43522910D01*
X65328742Y-43637655D01*
X65259744Y-43740918D01*
X65171918Y-43828744D01*
X65068655Y-43897742D01*
X64953910Y-43945271D01*
X64832100Y-43969500D01*
X64707900Y-43969500D01*
X64586090Y-43945271D01*
X64471345Y-43897742D01*
X64368082Y-43828744D01*
X64280256Y-43740918D01*
X64211258Y-43637655D01*
X64163729Y-43522910D01*
X64139500Y-43401100D01*
X64139500Y-43276900D01*
X64163729Y-43155090D01*
X64211258Y-43040345D01*
X64280256Y-42937082D01*
X64368082Y-42849256D01*
X64471345Y-42780258D01*
X64586090Y-42732729D01*
X64707900Y-42708500D01*
X64832100Y-42708500D01*
X64953910Y-42732729D01*
G37*
G36*
X57780500Y-43969500D02*
G01*
X56519500Y-43969500D01*
X56519500Y-42708500D01*
X57780500Y-42708500D01*
X57780500Y-43969500D01*
G37*
G36*
X75113910Y-42732729D02*
G01*
X75228655Y-42780258D01*
X75331918Y-42849256D01*
X75419744Y-42937082D01*
X75488742Y-43040345D01*
X75536271Y-43155090D01*
X75560500Y-43276900D01*
X75560500Y-43401100D01*
X75536271Y-43522910D01*
X75488742Y-43637655D01*
X75419744Y-43740918D01*
X75331918Y-43828744D01*
X75228655Y-43897742D01*
X75113910Y-43945271D01*
X74992100Y-43969500D01*
X74867900Y-43969500D01*
X74746090Y-43945271D01*
X74631345Y-43897742D01*
X74528082Y-43828744D01*
X74440256Y-43740918D01*
X74371258Y-43637655D01*
X74323729Y-43522910D01*
X74299500Y-43401100D01*
X74299500Y-43276900D01*
X74323729Y-43155090D01*
X74371258Y-43040345D01*
X74440256Y-42937082D01*
X74528082Y-42849256D01*
X74631345Y-42780258D01*
X74746090Y-42732729D01*
X74867900Y-42708500D01*
X74992100Y-42708500D01*
X75113910Y-42732729D01*
G37*
G36*
X67493910Y-42732729D02*
G01*
X67608655Y-42780258D01*
X67711918Y-42849256D01*
X67799744Y-42937082D01*
X67868742Y-43040345D01*
X67916271Y-43155090D01*
X67940500Y-43276900D01*
X67940500Y-43401100D01*
X67916271Y-43522910D01*
X67868742Y-43637655D01*
X67799744Y-43740918D01*
X67711918Y-43828744D01*
X67608655Y-43897742D01*
X67493910Y-43945271D01*
X67372100Y-43969500D01*
X67247900Y-43969500D01*
X67126090Y-43945271D01*
X67011345Y-43897742D01*
X66908082Y-43828744D01*
X66820256Y-43740918D01*
X66751258Y-43637655D01*
X66703729Y-43522910D01*
X66679500Y-43401100D01*
X66679500Y-43276900D01*
X66703729Y-43155090D01*
X66751258Y-43040345D01*
X66820256Y-42937082D01*
X66908082Y-42849256D01*
X67011345Y-42780258D01*
X67126090Y-42732729D01*
X67247900Y-42708500D01*
X67372100Y-42708500D01*
X67493910Y-42732729D01*
G37*
G36*
X130634239Y-36811467D02*
G01*
X130948282Y-36873934D01*
X131539926Y-37119001D01*
X132072392Y-37474784D01*
X132525216Y-37927608D01*
X132880999Y-38460074D01*
X133126066Y-39051718D01*
X133251000Y-39679804D01*
X133251000Y-40320196D01*
X133126066Y-40948282D01*
X132880999Y-41539926D01*
X132614709Y-41938456D01*
X132546192Y-42041000D01*
X132525216Y-42072392D01*
X132072392Y-42525216D01*
X131539926Y-42880999D01*
X130948282Y-43126066D01*
X130802368Y-43155090D01*
X130320197Y-43251000D01*
X129679803Y-43251000D01*
X129197632Y-43155090D01*
X129051718Y-43126066D01*
X128460074Y-42880999D01*
X127927608Y-42525216D01*
X127474784Y-42072392D01*
X127453809Y-42041000D01*
X127385291Y-41938456D01*
X127119001Y-41539926D01*
X126873934Y-40948282D01*
X126749000Y-40320196D01*
X126749000Y-39679804D01*
X126873934Y-39051718D01*
X127119001Y-38460074D01*
X127474784Y-37927608D01*
X127927608Y-37474784D01*
X128460074Y-37119001D01*
X129051718Y-36873934D01*
X129365761Y-36811467D01*
X129679803Y-36749000D01*
X130320197Y-36749000D01*
X130634239Y-36811467D01*
G37*
G36*
X109333512Y-41013927D02*
G01*
X109482812Y-41043624D01*
X109646784Y-41111544D01*
X109794354Y-41210147D01*
X109919853Y-41335646D01*
X110018456Y-41483216D01*
X110086376Y-41647188D01*
X110121000Y-41821259D01*
X110121000Y-41998741D01*
X110086376Y-42172812D01*
X110018456Y-42336784D01*
X109919853Y-42484354D01*
X109794354Y-42609853D01*
X109646784Y-42708456D01*
X109482812Y-42776376D01*
X109333512Y-42806073D01*
X109308742Y-42811000D01*
X109131258Y-42811000D01*
X109106488Y-42806073D01*
X108957188Y-42776376D01*
X108793216Y-42708456D01*
X108645646Y-42609853D01*
X108520147Y-42484354D01*
X108421544Y-42336784D01*
X108353624Y-42172812D01*
X108319000Y-41998741D01*
X108319000Y-41821259D01*
X108353624Y-41647188D01*
X108421544Y-41483216D01*
X108520147Y-41335646D01*
X108645646Y-41210147D01*
X108793216Y-41111544D01*
X108957188Y-41043624D01*
X109106488Y-41013927D01*
X109131258Y-41009000D01*
X109308742Y-41009000D01*
X109333512Y-41013927D01*
G37*
G36*
X96633512Y-40243927D02*
G01*
X96782812Y-40273624D01*
X96946784Y-40341544D01*
X97094354Y-40440147D01*
X97219853Y-40565646D01*
X97318456Y-40713216D01*
X97386376Y-40877188D01*
X97421000Y-41051259D01*
X97421000Y-41228741D01*
X97386376Y-41402812D01*
X97318456Y-41566784D01*
X97219853Y-41714354D01*
X97094354Y-41839853D01*
X96946784Y-41938456D01*
X96782812Y-42006376D01*
X96633512Y-42036073D01*
X96608742Y-42041000D01*
X96431258Y-42041000D01*
X96406488Y-42036073D01*
X96257188Y-42006376D01*
X96093216Y-41938456D01*
X95945646Y-41839853D01*
X95820147Y-41714354D01*
X95721544Y-41566784D01*
X95653624Y-41402812D01*
X95619000Y-41228741D01*
X95619000Y-41051259D01*
X95653624Y-40877188D01*
X95721544Y-40713216D01*
X95820147Y-40565646D01*
X95945646Y-40440147D01*
X96093216Y-40341544D01*
X96257188Y-40273624D01*
X96406488Y-40243927D01*
X96431258Y-40239000D01*
X96608742Y-40239000D01*
X96633512Y-40243927D01*
G37*
G36*
X52183512Y-40243927D02*
G01*
X52332812Y-40273624D01*
X52496784Y-40341544D01*
X52644354Y-40440147D01*
X52769853Y-40565646D01*
X52868456Y-40713216D01*
X52936376Y-40877188D01*
X52971000Y-41051259D01*
X52971000Y-41228741D01*
X52936376Y-41402812D01*
X52868456Y-41566784D01*
X52769853Y-41714354D01*
X52644354Y-41839853D01*
X52496784Y-41938456D01*
X52332812Y-42006376D01*
X52183512Y-42036073D01*
X52158742Y-42041000D01*
X51981258Y-42041000D01*
X51956488Y-42036073D01*
X51807188Y-42006376D01*
X51643216Y-41938456D01*
X51495646Y-41839853D01*
X51370147Y-41714354D01*
X51271544Y-41566784D01*
X51203624Y-41402812D01*
X51169000Y-41228741D01*
X51169000Y-41051259D01*
X51203624Y-40877188D01*
X51271544Y-40713216D01*
X51370147Y-40565646D01*
X51495646Y-40440147D01*
X51643216Y-40341544D01*
X51807188Y-40273624D01*
X51956488Y-40243927D01*
X51981258Y-40239000D01*
X52158742Y-40239000D01*
X52183512Y-40243927D01*
G37*
G36*
X144841000Y-41671000D02*
G01*
X142739000Y-41671000D01*
X142739000Y-40469000D01*
X144841000Y-40469000D01*
X144841000Y-41671000D01*
G37*
G36*
X153731000Y-41671000D02*
G01*
X151629000Y-41671000D01*
X151629000Y-40469000D01*
X153731000Y-40469000D01*
X153731000Y-41671000D01*
G37*
G36*
X198041000Y-41671000D02*
G01*
X195939000Y-41671000D01*
X195939000Y-40469000D01*
X198041000Y-40469000D01*
X198041000Y-41671000D01*
G37*
G36*
X185061000Y-41671000D02*
G01*
X182959000Y-41671000D01*
X182959000Y-40469000D01*
X185061000Y-40469000D01*
X185061000Y-41671000D01*
G37*
G36*
X180261000Y-41671000D02*
G01*
X178159000Y-41671000D01*
X178159000Y-40469000D01*
X180261000Y-40469000D01*
X180261000Y-41671000D01*
G37*
G36*
X176171000Y-41671000D02*
G01*
X174069000Y-41671000D01*
X174069000Y-40469000D01*
X176171000Y-40469000D01*
X176171000Y-41671000D01*
G37*
G36*
X171371000Y-41671000D02*
G01*
X169269000Y-41671000D01*
X169269000Y-40469000D01*
X171371000Y-40469000D01*
X171371000Y-41671000D01*
G37*
G36*
X189151000Y-41671000D02*
G01*
X187049000Y-41671000D01*
X187049000Y-40469000D01*
X189151000Y-40469000D01*
X189151000Y-41671000D01*
G37*
G36*
X167281000Y-41671000D02*
G01*
X165179000Y-41671000D01*
X165179000Y-40469000D01*
X167281000Y-40469000D01*
X167281000Y-41671000D01*
G37*
G36*
X162481000Y-41671000D02*
G01*
X160379000Y-41671000D01*
X160379000Y-40469000D01*
X162481000Y-40469000D01*
X162481000Y-41671000D01*
G37*
G36*
X158531000Y-41671000D02*
G01*
X156429000Y-41671000D01*
X156429000Y-40469000D01*
X158531000Y-40469000D01*
X158531000Y-41671000D01*
G37*
G36*
X202841000Y-41671000D02*
G01*
X200739000Y-41671000D01*
X200739000Y-40469000D01*
X202841000Y-40469000D01*
X202841000Y-41671000D01*
G37*
G36*
X193951000Y-41671000D02*
G01*
X191849000Y-41671000D01*
X191849000Y-40469000D01*
X193951000Y-40469000D01*
X193951000Y-41671000D01*
G37*
G36*
X149641000Y-41671000D02*
G01*
X147539000Y-41671000D01*
X147539000Y-40469000D01*
X149641000Y-40469000D01*
X149641000Y-41671000D01*
G37*
G36*
X208517916Y-37532334D02*
G01*
X208626492Y-37565271D01*
X208626495Y-37565272D01*
X208662601Y-37584571D01*
X208726557Y-37618756D01*
X208814264Y-37690736D01*
X208886244Y-37778443D01*
X208920429Y-37842399D01*
X208939728Y-37878505D01*
X208939729Y-37878508D01*
X208972666Y-37987084D01*
X208983787Y-38100000D01*
X208972666Y-38212916D01*
X208939729Y-38321492D01*
X208939728Y-38321495D01*
X208931339Y-38337189D01*
X208886244Y-38421557D01*
X208814264Y-38509264D01*
X208726557Y-38581244D01*
X208645141Y-38624761D01*
X208624766Y-38638375D01*
X208607439Y-38655702D01*
X208593826Y-38676076D01*
X208584448Y-38698715D01*
X208579668Y-38722748D01*
X208579668Y-38747252D01*
X208584448Y-38771285D01*
X208593826Y-38793924D01*
X208607440Y-38814299D01*
X208624767Y-38831626D01*
X208645141Y-38845239D01*
X208726557Y-38888756D01*
X208814264Y-38960736D01*
X208886244Y-39048443D01*
X208920429Y-39112399D01*
X208939728Y-39148505D01*
X208939729Y-39148508D01*
X208972666Y-39257084D01*
X208983787Y-39370000D01*
X208972666Y-39482916D01*
X208939729Y-39591492D01*
X208939728Y-39591495D01*
X208920429Y-39627601D01*
X208886244Y-39691557D01*
X208814264Y-39779264D01*
X208732608Y-39846278D01*
X208715284Y-39863602D01*
X208701671Y-39883976D01*
X208692293Y-39906615D01*
X208687513Y-39930648D01*
X208687513Y-39955152D01*
X208692294Y-39979186D01*
X208701671Y-40001825D01*
X208715285Y-40022199D01*
X208732612Y-40039526D01*
X208752986Y-40053139D01*
X208775625Y-40062517D01*
X208799661Y-40067297D01*
X208812915Y-40068602D01*
X208851952Y-40080444D01*
X208887921Y-40099670D01*
X208919453Y-40125547D01*
X208945330Y-40157079D01*
X208964556Y-40193048D01*
X208976398Y-40232085D01*
X208981000Y-40278814D01*
X208981000Y-41001186D01*
X208976398Y-41047915D01*
X208964556Y-41086952D01*
X208945330Y-41122921D01*
X208919453Y-41154453D01*
X208887921Y-41180330D01*
X208851952Y-41199556D01*
X208812915Y-41211398D01*
X208766186Y-41216000D01*
X207793814Y-41216000D01*
X207747085Y-41211398D01*
X207708048Y-41199556D01*
X207672079Y-41180330D01*
X207640547Y-41154453D01*
X207614670Y-41122921D01*
X207595444Y-41086952D01*
X207583602Y-41047915D01*
X207579000Y-41001186D01*
X207579000Y-40278814D01*
X207583602Y-40232085D01*
X207595444Y-40193048D01*
X207614670Y-40157079D01*
X207640547Y-40125547D01*
X207672079Y-40099670D01*
X207708048Y-40080444D01*
X207747085Y-40068602D01*
X207760339Y-40067297D01*
X207784372Y-40062517D01*
X207807011Y-40053141D01*
X207827386Y-40039527D01*
X207844714Y-40022201D01*
X207858328Y-40001827D01*
X207867706Y-39979188D01*
X207872487Y-39955155D01*
X207872487Y-39930651D01*
X207867707Y-39906618D01*
X207858331Y-39883979D01*
X207844717Y-39863604D01*
X207827392Y-39846278D01*
X207745736Y-39779264D01*
X207673756Y-39691557D01*
X207639571Y-39627601D01*
X207620272Y-39591495D01*
X207620271Y-39591492D01*
X207587334Y-39482916D01*
X207576213Y-39370000D01*
X207587334Y-39257084D01*
X207620271Y-39148508D01*
X207620272Y-39148505D01*
X207639571Y-39112399D01*
X207673756Y-39048443D01*
X207745736Y-38960736D01*
X207833443Y-38888756D01*
X207914859Y-38845239D01*
X207935234Y-38831625D01*
X207952561Y-38814298D01*
X207966174Y-38793924D01*
X207975552Y-38771285D01*
X207980332Y-38747252D01*
X207980332Y-38722748D01*
X207975552Y-38698715D01*
X207966174Y-38676076D01*
X207952560Y-38655701D01*
X207935233Y-38638374D01*
X207914859Y-38624761D01*
X207833443Y-38581244D01*
X207745736Y-38509264D01*
X207673756Y-38421557D01*
X207628661Y-38337189D01*
X207620272Y-38321495D01*
X207620271Y-38321492D01*
X207587334Y-38212916D01*
X207576213Y-38100000D01*
X207587334Y-37987084D01*
X207620271Y-37878508D01*
X207620272Y-37878505D01*
X207639571Y-37842399D01*
X207673756Y-37778443D01*
X207745736Y-37690736D01*
X207833443Y-37618756D01*
X207897399Y-37584571D01*
X207933505Y-37565272D01*
X207933508Y-37565271D01*
X208042084Y-37532334D01*
X208126702Y-37524000D01*
X208433298Y-37524000D01*
X208517916Y-37532334D01*
G37*
G36*
X110121000Y-40271000D02*
G01*
X108319000Y-40271000D01*
X108319000Y-38469000D01*
X110121000Y-38469000D01*
X110121000Y-40271000D01*
G37*
G36*
X176171000Y-39971000D02*
G01*
X174069000Y-39971000D01*
X174069000Y-38769000D01*
X176171000Y-38769000D01*
X176171000Y-39971000D01*
G37*
G36*
X167281000Y-39971000D02*
G01*
X165179000Y-39971000D01*
X165179000Y-38769000D01*
X167281000Y-38769000D01*
X167281000Y-39971000D01*
G37*
G36*
X180261000Y-39971000D02*
G01*
X178159000Y-39971000D01*
X178159000Y-38769000D01*
X180261000Y-38769000D01*
X180261000Y-39971000D01*
G37*
G36*
X162481000Y-39971000D02*
G01*
X160379000Y-39971000D01*
X160379000Y-38769000D01*
X162481000Y-38769000D01*
X162481000Y-39971000D01*
G37*
G36*
X144841000Y-39971000D02*
G01*
X142739000Y-39971000D01*
X142739000Y-38769000D01*
X144841000Y-38769000D01*
X144841000Y-39971000D01*
G37*
G36*
X149641000Y-39971000D02*
G01*
X147539000Y-39971000D01*
X147539000Y-38769000D01*
X149641000Y-38769000D01*
X149641000Y-39971000D01*
G37*
G36*
X153731000Y-39971000D02*
G01*
X151629000Y-39971000D01*
X151629000Y-38769000D01*
X153731000Y-38769000D01*
X153731000Y-39971000D01*
G37*
G36*
X193951000Y-39971000D02*
G01*
X191849000Y-39971000D01*
X191849000Y-38769000D01*
X193951000Y-38769000D01*
X193951000Y-39971000D01*
G37*
G36*
X198041000Y-39971000D02*
G01*
X195939000Y-39971000D01*
X195939000Y-38769000D01*
X198041000Y-38769000D01*
X198041000Y-39971000D01*
G37*
G36*
X185061000Y-39971000D02*
G01*
X182959000Y-39971000D01*
X182959000Y-38769000D01*
X185061000Y-38769000D01*
X185061000Y-39971000D01*
G37*
G36*
X171371000Y-39971000D02*
G01*
X169269000Y-39971000D01*
X169269000Y-38769000D01*
X171371000Y-38769000D01*
X171371000Y-39971000D01*
G37*
G36*
X202841000Y-39971000D02*
G01*
X200739000Y-39971000D01*
X200739000Y-38769000D01*
X202841000Y-38769000D01*
X202841000Y-39971000D01*
G37*
G36*
X189151000Y-39971000D02*
G01*
X187049000Y-39971000D01*
X187049000Y-38769000D01*
X189151000Y-38769000D01*
X189151000Y-39971000D01*
G37*
G36*
X158531000Y-39971000D02*
G01*
X156429000Y-39971000D01*
X156429000Y-38769000D01*
X158531000Y-38769000D01*
X158531000Y-39971000D01*
G37*
G36*
X52183512Y-37703927D02*
G01*
X52332812Y-37733624D01*
X52496784Y-37801544D01*
X52644354Y-37900147D01*
X52769853Y-38025646D01*
X52868456Y-38173216D01*
X52936376Y-38337188D01*
X52971000Y-38511259D01*
X52971000Y-38688741D01*
X52936376Y-38862812D01*
X52868456Y-39026784D01*
X52769853Y-39174354D01*
X52644354Y-39299853D01*
X52496784Y-39398456D01*
X52332812Y-39466376D01*
X52183512Y-39496073D01*
X52158742Y-39501000D01*
X51981258Y-39501000D01*
X51956488Y-39496073D01*
X51807188Y-39466376D01*
X51643216Y-39398456D01*
X51495646Y-39299853D01*
X51370147Y-39174354D01*
X51271544Y-39026784D01*
X51203624Y-38862812D01*
X51169000Y-38688741D01*
X51169000Y-38511259D01*
X51203624Y-38337188D01*
X51271544Y-38173216D01*
X51370147Y-38025646D01*
X51495646Y-37900147D01*
X51643216Y-37801544D01*
X51807188Y-37733624D01*
X51956488Y-37703927D01*
X51981258Y-37699000D01*
X52158742Y-37699000D01*
X52183512Y-37703927D01*
G37*
G36*
X96633512Y-37703927D02*
G01*
X96782812Y-37733624D01*
X96946784Y-37801544D01*
X97094354Y-37900147D01*
X97219853Y-38025646D01*
X97318456Y-38173216D01*
X97386376Y-38337188D01*
X97421000Y-38511259D01*
X97421000Y-38688741D01*
X97386376Y-38862812D01*
X97318456Y-39026784D01*
X97219853Y-39174354D01*
X97094354Y-39299853D01*
X96946784Y-39398456D01*
X96782812Y-39466376D01*
X96633512Y-39496073D01*
X96608742Y-39501000D01*
X96431258Y-39501000D01*
X96406488Y-39496073D01*
X96257188Y-39466376D01*
X96093216Y-39398456D01*
X95945646Y-39299853D01*
X95820147Y-39174354D01*
X95721544Y-39026784D01*
X95653624Y-38862812D01*
X95619000Y-38688741D01*
X95619000Y-38511259D01*
X95653624Y-38337188D01*
X95721544Y-38173216D01*
X95820147Y-38025646D01*
X95945646Y-37900147D01*
X96093216Y-37801544D01*
X96257188Y-37733624D01*
X96406488Y-37703927D01*
X96431258Y-37699000D01*
X96608742Y-37699000D01*
X96633512Y-37703927D01*
G37*
G36*
X185061000Y-38271000D02*
G01*
X182959000Y-38271000D01*
X182959000Y-37069000D01*
X185061000Y-37069000D01*
X185061000Y-38271000D01*
G37*
G36*
X180261000Y-38271000D02*
G01*
X178159000Y-38271000D01*
X178159000Y-37069000D01*
X180261000Y-37069000D01*
X180261000Y-38271000D01*
G37*
G36*
X176171000Y-38271000D02*
G01*
X174069000Y-38271000D01*
X174069000Y-37069000D01*
X176171000Y-37069000D01*
X176171000Y-38271000D01*
G37*
G36*
X189151000Y-38271000D02*
G01*
X187049000Y-38271000D01*
X187049000Y-37069000D01*
X189151000Y-37069000D01*
X189151000Y-38271000D01*
G37*
G36*
X171371000Y-38271000D02*
G01*
X169269000Y-38271000D01*
X169269000Y-37069000D01*
X171371000Y-37069000D01*
X171371000Y-38271000D01*
G37*
G36*
X167281000Y-38271000D02*
G01*
X165179000Y-38271000D01*
X165179000Y-37069000D01*
X167281000Y-37069000D01*
X167281000Y-38271000D01*
G37*
G36*
X162481000Y-38271000D02*
G01*
X160379000Y-38271000D01*
X160379000Y-37069000D01*
X162481000Y-37069000D01*
X162481000Y-38271000D01*
G37*
G36*
X153731000Y-38271000D02*
G01*
X151629000Y-38271000D01*
X151629000Y-37069000D01*
X153731000Y-37069000D01*
X153731000Y-38271000D01*
G37*
G36*
X149641000Y-38271000D02*
G01*
X147539000Y-38271000D01*
X147539000Y-37069000D01*
X149641000Y-37069000D01*
X149641000Y-38271000D01*
G37*
G36*
X198041000Y-38271000D02*
G01*
X195939000Y-38271000D01*
X195939000Y-37069000D01*
X198041000Y-37069000D01*
X198041000Y-38271000D01*
G37*
G36*
X202841000Y-38271000D02*
G01*
X200739000Y-38271000D01*
X200739000Y-37069000D01*
X202841000Y-37069000D01*
X202841000Y-38271000D01*
G37*
G36*
X144841000Y-38271000D02*
G01*
X142739000Y-38271000D01*
X142739000Y-37069000D01*
X144841000Y-37069000D01*
X144841000Y-38271000D01*
G37*
G36*
X193951000Y-38271000D02*
G01*
X191849000Y-38271000D01*
X191849000Y-37069000D01*
X193951000Y-37069000D01*
X193951000Y-38271000D01*
G37*
G36*
X158531000Y-38271000D02*
G01*
X156429000Y-38271000D01*
X156429000Y-37069000D01*
X158531000Y-37069000D01*
X158531000Y-38271000D01*
G37*
G36*
X96633512Y-35163927D02*
G01*
X96782812Y-35193624D01*
X96946784Y-35261544D01*
X97094354Y-35360147D01*
X97219853Y-35485646D01*
X97318456Y-35633216D01*
X97386376Y-35797188D01*
X97421000Y-35971259D01*
X97421000Y-36148741D01*
X97386376Y-36322812D01*
X97318456Y-36486784D01*
X97219853Y-36634354D01*
X97094354Y-36759853D01*
X96946784Y-36858456D01*
X96782812Y-36926376D01*
X96633512Y-36956073D01*
X96608742Y-36961000D01*
X96431258Y-36961000D01*
X96406488Y-36956073D01*
X96257188Y-36926376D01*
X96093216Y-36858456D01*
X95945646Y-36759853D01*
X95820147Y-36634354D01*
X95721544Y-36486784D01*
X95653624Y-36322812D01*
X95619000Y-36148741D01*
X95619000Y-35971259D01*
X95653624Y-35797188D01*
X95721544Y-35633216D01*
X95820147Y-35485646D01*
X95945646Y-35360147D01*
X96093216Y-35261544D01*
X96257188Y-35193624D01*
X96406488Y-35163927D01*
X96431258Y-35159000D01*
X96608742Y-35159000D01*
X96633512Y-35163927D01*
G37*
G36*
X52183512Y-35163927D02*
G01*
X52332812Y-35193624D01*
X52496784Y-35261544D01*
X52644354Y-35360147D01*
X52769853Y-35485646D01*
X52868456Y-35633216D01*
X52936376Y-35797188D01*
X52971000Y-35971259D01*
X52971000Y-36148741D01*
X52936376Y-36322812D01*
X52868456Y-36486784D01*
X52769853Y-36634354D01*
X52644354Y-36759853D01*
X52496784Y-36858456D01*
X52332812Y-36926376D01*
X52183512Y-36956073D01*
X52158742Y-36961000D01*
X51981258Y-36961000D01*
X51956488Y-36956073D01*
X51807188Y-36926376D01*
X51643216Y-36858456D01*
X51495646Y-36759853D01*
X51370147Y-36634354D01*
X51271544Y-36486784D01*
X51203624Y-36322812D01*
X51169000Y-36148741D01*
X51169000Y-35971259D01*
X51203624Y-35797188D01*
X51271544Y-35633216D01*
X51370147Y-35485646D01*
X51495646Y-35360147D01*
X51643216Y-35261544D01*
X51807188Y-35193624D01*
X51956488Y-35163927D01*
X51981258Y-35159000D01*
X52158742Y-35159000D01*
X52183512Y-35163927D01*
G37*
G36*
X80193910Y-34794729D02*
G01*
X80308655Y-34842258D01*
X80411918Y-34911256D01*
X80499744Y-34999082D01*
X80568742Y-35102345D01*
X80616271Y-35217090D01*
X80640500Y-35338900D01*
X80640500Y-35463100D01*
X80616271Y-35584910D01*
X80568742Y-35699655D01*
X80499744Y-35802918D01*
X80411918Y-35890744D01*
X80308655Y-35959742D01*
X80193910Y-36007271D01*
X80072100Y-36031500D01*
X79947900Y-36031500D01*
X79826090Y-36007271D01*
X79711345Y-35959742D01*
X79608082Y-35890744D01*
X79520256Y-35802918D01*
X79451258Y-35699655D01*
X79403729Y-35584910D01*
X79379500Y-35463100D01*
X79379500Y-35338900D01*
X79403729Y-35217090D01*
X79451258Y-35102345D01*
X79520256Y-34999082D01*
X79608082Y-34911256D01*
X79711345Y-34842258D01*
X79826090Y-34794729D01*
X79947900Y-34770500D01*
X80072100Y-34770500D01*
X80193910Y-34794729D01*
G37*
G36*
X57333910Y-34794729D02*
G01*
X57448655Y-34842258D01*
X57551918Y-34911256D01*
X57639744Y-34999082D01*
X57708742Y-35102345D01*
X57756271Y-35217090D01*
X57780500Y-35338900D01*
X57780500Y-35463100D01*
X57756271Y-35584910D01*
X57708742Y-35699655D01*
X57639744Y-35802918D01*
X57551918Y-35890744D01*
X57448655Y-35959742D01*
X57333910Y-36007271D01*
X57212100Y-36031500D01*
X57087900Y-36031500D01*
X56966090Y-36007271D01*
X56851345Y-35959742D01*
X56748082Y-35890744D01*
X56660256Y-35802918D01*
X56591258Y-35699655D01*
X56543729Y-35584910D01*
X56519500Y-35463100D01*
X56519500Y-35338900D01*
X56543729Y-35217090D01*
X56591258Y-35102345D01*
X56660256Y-34999082D01*
X56748082Y-34911256D01*
X56851345Y-34842258D01*
X56966090Y-34794729D01*
X57087900Y-34770500D01*
X57212100Y-34770500D01*
X57333910Y-34794729D01*
G37*
G36*
X62413910Y-34794729D02*
G01*
X62528655Y-34842258D01*
X62631918Y-34911256D01*
X62719744Y-34999082D01*
X62788742Y-35102345D01*
X62836271Y-35217090D01*
X62860500Y-35338900D01*
X62860500Y-35463100D01*
X62836271Y-35584910D01*
X62788742Y-35699655D01*
X62719744Y-35802918D01*
X62631918Y-35890744D01*
X62528655Y-35959742D01*
X62413910Y-36007271D01*
X62292100Y-36031500D01*
X62167900Y-36031500D01*
X62046090Y-36007271D01*
X61931345Y-35959742D01*
X61828082Y-35890744D01*
X61740256Y-35802918D01*
X61671258Y-35699655D01*
X61623729Y-35584910D01*
X61599500Y-35463100D01*
X61599500Y-35338900D01*
X61623729Y-35217090D01*
X61671258Y-35102345D01*
X61740256Y-34999082D01*
X61828082Y-34911256D01*
X61931345Y-34842258D01*
X62046090Y-34794729D01*
X62167900Y-34770500D01*
X62292100Y-34770500D01*
X62413910Y-34794729D01*
G37*
G36*
X64953910Y-34794729D02*
G01*
X65068655Y-34842258D01*
X65171918Y-34911256D01*
X65259744Y-34999082D01*
X65328742Y-35102345D01*
X65376271Y-35217090D01*
X65400500Y-35338900D01*
X65400500Y-35463100D01*
X65376271Y-35584910D01*
X65328742Y-35699655D01*
X65259744Y-35802918D01*
X65171918Y-35890744D01*
X65068655Y-35959742D01*
X64953910Y-36007271D01*
X64832100Y-36031500D01*
X64707900Y-36031500D01*
X64586090Y-36007271D01*
X64471345Y-35959742D01*
X64368082Y-35890744D01*
X64280256Y-35802918D01*
X64211258Y-35699655D01*
X64163729Y-35584910D01*
X64139500Y-35463100D01*
X64139500Y-35338900D01*
X64163729Y-35217090D01*
X64211258Y-35102345D01*
X64280256Y-34999082D01*
X64368082Y-34911256D01*
X64471345Y-34842258D01*
X64586090Y-34794729D01*
X64707900Y-34770500D01*
X64832100Y-34770500D01*
X64953910Y-34794729D01*
G37*
G36*
X67493910Y-34794729D02*
G01*
X67608655Y-34842258D01*
X67711918Y-34911256D01*
X67799744Y-34999082D01*
X67868742Y-35102345D01*
X67916271Y-35217090D01*
X67940500Y-35338900D01*
X67940500Y-35463100D01*
X67916271Y-35584910D01*
X67868742Y-35699655D01*
X67799744Y-35802918D01*
X67711918Y-35890744D01*
X67608655Y-35959742D01*
X67493910Y-36007271D01*
X67372100Y-36031500D01*
X67247900Y-36031500D01*
X67126090Y-36007271D01*
X67011345Y-35959742D01*
X66908082Y-35890744D01*
X66820256Y-35802918D01*
X66751258Y-35699655D01*
X66703729Y-35584910D01*
X66679500Y-35463100D01*
X66679500Y-35338900D01*
X66703729Y-35217090D01*
X66751258Y-35102345D01*
X66820256Y-34999082D01*
X66908082Y-34911256D01*
X67011345Y-34842258D01*
X67126090Y-34794729D01*
X67247900Y-34770500D01*
X67372100Y-34770500D01*
X67493910Y-34794729D01*
G37*
G36*
X70033910Y-34794729D02*
G01*
X70148655Y-34842258D01*
X70251918Y-34911256D01*
X70339744Y-34999082D01*
X70408742Y-35102345D01*
X70456271Y-35217090D01*
X70480500Y-35338900D01*
X70480500Y-35463100D01*
X70456271Y-35584910D01*
X70408742Y-35699655D01*
X70339744Y-35802918D01*
X70251918Y-35890744D01*
X70148655Y-35959742D01*
X70033910Y-36007271D01*
X69912100Y-36031500D01*
X69787900Y-36031500D01*
X69666090Y-36007271D01*
X69551345Y-35959742D01*
X69448082Y-35890744D01*
X69360256Y-35802918D01*
X69291258Y-35699655D01*
X69243729Y-35584910D01*
X69219500Y-35463100D01*
X69219500Y-35338900D01*
X69243729Y-35217090D01*
X69291258Y-35102345D01*
X69360256Y-34999082D01*
X69448082Y-34911256D01*
X69551345Y-34842258D01*
X69666090Y-34794729D01*
X69787900Y-34770500D01*
X69912100Y-34770500D01*
X70033910Y-34794729D01*
G37*
G36*
X72573910Y-34794729D02*
G01*
X72688655Y-34842258D01*
X72791918Y-34911256D01*
X72879744Y-34999082D01*
X72948742Y-35102345D01*
X72996271Y-35217090D01*
X73020500Y-35338900D01*
X73020500Y-35463100D01*
X72996271Y-35584910D01*
X72948742Y-35699655D01*
X72879744Y-35802918D01*
X72791918Y-35890744D01*
X72688655Y-35959742D01*
X72573910Y-36007271D01*
X72452100Y-36031500D01*
X72327900Y-36031500D01*
X72206090Y-36007271D01*
X72091345Y-35959742D01*
X71988082Y-35890744D01*
X71900256Y-35802918D01*
X71831258Y-35699655D01*
X71783729Y-35584910D01*
X71759500Y-35463100D01*
X71759500Y-35338900D01*
X71783729Y-35217090D01*
X71831258Y-35102345D01*
X71900256Y-34999082D01*
X71988082Y-34911256D01*
X72091345Y-34842258D01*
X72206090Y-34794729D01*
X72327900Y-34770500D01*
X72452100Y-34770500D01*
X72573910Y-34794729D01*
G37*
G36*
X75113910Y-34794729D02*
G01*
X75228655Y-34842258D01*
X75331918Y-34911256D01*
X75419744Y-34999082D01*
X75488742Y-35102345D01*
X75536271Y-35217090D01*
X75560500Y-35338900D01*
X75560500Y-35463100D01*
X75536271Y-35584910D01*
X75488742Y-35699655D01*
X75419744Y-35802918D01*
X75331918Y-35890744D01*
X75228655Y-35959742D01*
X75113910Y-36007271D01*
X74992100Y-36031500D01*
X74867900Y-36031500D01*
X74746090Y-36007271D01*
X74631345Y-35959742D01*
X74528082Y-35890744D01*
X74440256Y-35802918D01*
X74371258Y-35699655D01*
X74323729Y-35584910D01*
X74299500Y-35463100D01*
X74299500Y-35338900D01*
X74323729Y-35217090D01*
X74371258Y-35102345D01*
X74440256Y-34999082D01*
X74528082Y-34911256D01*
X74631345Y-34842258D01*
X74746090Y-34794729D01*
X74867900Y-34770500D01*
X74992100Y-34770500D01*
X75113910Y-34794729D01*
G37*
G36*
X77653910Y-34794729D02*
G01*
X77768655Y-34842258D01*
X77871918Y-34911256D01*
X77959744Y-34999082D01*
X78028742Y-35102345D01*
X78076271Y-35217090D01*
X78100500Y-35338900D01*
X78100500Y-35463100D01*
X78076271Y-35584910D01*
X78028742Y-35699655D01*
X77959744Y-35802918D01*
X77871918Y-35890744D01*
X77768655Y-35959742D01*
X77653910Y-36007271D01*
X77532100Y-36031500D01*
X77407900Y-36031500D01*
X77286090Y-36007271D01*
X77171345Y-35959742D01*
X77068082Y-35890744D01*
X76980256Y-35802918D01*
X76911258Y-35699655D01*
X76863729Y-35584910D01*
X76839500Y-35463100D01*
X76839500Y-35338900D01*
X76863729Y-35217090D01*
X76911258Y-35102345D01*
X76980256Y-34999082D01*
X77068082Y-34911256D01*
X77171345Y-34842258D01*
X77286090Y-34794729D01*
X77407900Y-34770500D01*
X77532100Y-34770500D01*
X77653910Y-34794729D01*
G37*
G36*
X82733910Y-34794729D02*
G01*
X82848655Y-34842258D01*
X82951918Y-34911256D01*
X83039744Y-34999082D01*
X83108742Y-35102345D01*
X83156271Y-35217090D01*
X83180500Y-35338900D01*
X83180500Y-35463100D01*
X83156271Y-35584910D01*
X83108742Y-35699655D01*
X83039744Y-35802918D01*
X82951918Y-35890744D01*
X82848655Y-35959742D01*
X82733910Y-36007271D01*
X82612100Y-36031500D01*
X82487900Y-36031500D01*
X82366090Y-36007271D01*
X82251345Y-35959742D01*
X82148082Y-35890744D01*
X82060256Y-35802918D01*
X81991258Y-35699655D01*
X81943729Y-35584910D01*
X81919500Y-35463100D01*
X81919500Y-35338900D01*
X81943729Y-35217090D01*
X81991258Y-35102345D01*
X82060256Y-34999082D01*
X82148082Y-34911256D01*
X82251345Y-34842258D01*
X82366090Y-34794729D01*
X82487900Y-34770500D01*
X82612100Y-34770500D01*
X82733910Y-34794729D01*
G37*
G36*
X85273910Y-34794729D02*
G01*
X85388655Y-34842258D01*
X85491918Y-34911256D01*
X85579744Y-34999082D01*
X85648742Y-35102345D01*
X85696271Y-35217090D01*
X85720500Y-35338900D01*
X85720500Y-35463100D01*
X85696271Y-35584910D01*
X85648742Y-35699655D01*
X85579744Y-35802918D01*
X85491918Y-35890744D01*
X85388655Y-35959742D01*
X85273910Y-36007271D01*
X85152100Y-36031500D01*
X85027900Y-36031500D01*
X84906090Y-36007271D01*
X84791345Y-35959742D01*
X84688082Y-35890744D01*
X84600256Y-35802918D01*
X84531258Y-35699655D01*
X84483729Y-35584910D01*
X84459500Y-35463100D01*
X84459500Y-35338900D01*
X84483729Y-35217090D01*
X84531258Y-35102345D01*
X84600256Y-34999082D01*
X84688082Y-34911256D01*
X84791345Y-34842258D01*
X84906090Y-34794729D01*
X85027900Y-34770500D01*
X85152100Y-34770500D01*
X85273910Y-34794729D01*
G37*
G36*
X59873910Y-34794729D02*
G01*
X59988655Y-34842258D01*
X60091918Y-34911256D01*
X60179744Y-34999082D01*
X60248742Y-35102345D01*
X60296271Y-35217090D01*
X60320500Y-35338900D01*
X60320500Y-35463100D01*
X60296271Y-35584910D01*
X60248742Y-35699655D01*
X60179744Y-35802918D01*
X60091918Y-35890744D01*
X59988655Y-35959742D01*
X59873910Y-36007271D01*
X59752100Y-36031500D01*
X59627900Y-36031500D01*
X59506090Y-36007271D01*
X59391345Y-35959742D01*
X59288082Y-35890744D01*
X59200256Y-35802918D01*
X59131258Y-35699655D01*
X59083729Y-35584910D01*
X59059500Y-35463100D01*
X59059500Y-35338900D01*
X59083729Y-35217090D01*
X59131258Y-35102345D01*
X59200256Y-34999082D01*
X59288082Y-34911256D01*
X59391345Y-34842258D01*
X59506090Y-34794729D01*
X59627900Y-34770500D01*
X59752100Y-34770500D01*
X59873910Y-34794729D01*
G37*
G36*
X87813910Y-34794729D02*
G01*
X87928655Y-34842258D01*
X88031918Y-34911256D01*
X88119744Y-34999082D01*
X88188742Y-35102345D01*
X88236271Y-35217090D01*
X88260500Y-35338900D01*
X88260500Y-35463100D01*
X88236271Y-35584910D01*
X88188742Y-35699655D01*
X88119744Y-35802918D01*
X88031918Y-35890744D01*
X87928655Y-35959742D01*
X87813910Y-36007271D01*
X87692100Y-36031500D01*
X87567900Y-36031500D01*
X87446090Y-36007271D01*
X87331345Y-35959742D01*
X87228082Y-35890744D01*
X87140256Y-35802918D01*
X87071258Y-35699655D01*
X87023729Y-35584910D01*
X86999500Y-35463100D01*
X86999500Y-35338900D01*
X87023729Y-35217090D01*
X87071258Y-35102345D01*
X87140256Y-34999082D01*
X87228082Y-34911256D01*
X87331345Y-34842258D01*
X87446090Y-34794729D01*
X87567900Y-34770500D01*
X87692100Y-34770500D01*
X87813910Y-34794729D01*
G37*
G36*
X90353910Y-34794729D02*
G01*
X90468655Y-34842258D01*
X90571918Y-34911256D01*
X90659744Y-34999082D01*
X90728742Y-35102345D01*
X90776271Y-35217090D01*
X90800500Y-35338900D01*
X90800500Y-35463100D01*
X90776271Y-35584910D01*
X90728742Y-35699655D01*
X90659744Y-35802918D01*
X90571918Y-35890744D01*
X90468655Y-35959742D01*
X90353910Y-36007271D01*
X90232100Y-36031500D01*
X90107900Y-36031500D01*
X89986090Y-36007271D01*
X89871345Y-35959742D01*
X89768082Y-35890744D01*
X89680256Y-35802918D01*
X89611258Y-35699655D01*
X89563729Y-35584910D01*
X89539500Y-35463100D01*
X89539500Y-35338900D01*
X89563729Y-35217090D01*
X89611258Y-35102345D01*
X89680256Y-34999082D01*
X89768082Y-34911256D01*
X89871345Y-34842258D01*
X89986090Y-34794729D01*
X90107900Y-34770500D01*
X90232100Y-34770500D01*
X90353910Y-34794729D01*
G37*
G36*
X52971000Y-34421000D02*
G01*
X51169000Y-34421000D01*
X51169000Y-32619000D01*
X52971000Y-32619000D01*
X52971000Y-34421000D01*
G37*
G36*
X96633512Y-32623927D02*
G01*
X96782812Y-32653624D01*
X96946784Y-32721544D01*
X97094354Y-32820147D01*
X97219853Y-32945646D01*
X97318456Y-33093216D01*
X97386376Y-33257188D01*
X97421000Y-33431259D01*
X97421000Y-33608741D01*
X97386376Y-33782812D01*
X97318456Y-33946784D01*
X97219853Y-34094354D01*
X97094354Y-34219853D01*
X96946784Y-34318456D01*
X96782812Y-34386376D01*
X96633512Y-34416073D01*
X96608742Y-34421000D01*
X96431258Y-34421000D01*
X96406488Y-34416073D01*
X96257188Y-34386376D01*
X96093216Y-34318456D01*
X95945646Y-34219853D01*
X95820147Y-34094354D01*
X95721544Y-33946784D01*
X95653624Y-33782812D01*
X95619000Y-33608741D01*
X95619000Y-33431259D01*
X95653624Y-33257188D01*
X95721544Y-33093216D01*
X95820147Y-32945646D01*
X95945646Y-32820147D01*
X96093216Y-32721544D01*
X96257188Y-32653624D01*
X96406488Y-32623927D01*
X96431258Y-32619000D01*
X96608742Y-32619000D01*
X96633512Y-32623927D01*
G37*
G36*
X57187091Y-31728085D02*
G01*
X57221069Y-31738393D01*
X57252390Y-31755134D01*
X57279839Y-31777661D01*
X57302366Y-31805110D01*
X57319107Y-31836431D01*
X57329415Y-31870409D01*
X57333500Y-31911890D01*
X57333500Y-32588110D01*
X57329415Y-32629591D01*
X57319107Y-32663569D01*
X57302366Y-32694890D01*
X57279839Y-32722339D01*
X57252390Y-32744866D01*
X57221069Y-32761607D01*
X57187091Y-32771915D01*
X57145610Y-32776000D01*
X56544390Y-32776000D01*
X56502909Y-32771915D01*
X56468931Y-32761607D01*
X56437610Y-32744866D01*
X56410161Y-32722339D01*
X56387634Y-32694890D01*
X56370893Y-32663569D01*
X56360585Y-32629591D01*
X56356500Y-32588110D01*
X56356500Y-31911890D01*
X56360585Y-31870409D01*
X56370893Y-31836431D01*
X56387634Y-31805110D01*
X56410161Y-31777661D01*
X56437610Y-31755134D01*
X56468931Y-31738393D01*
X56502909Y-31728085D01*
X56544390Y-31724000D01*
X57145610Y-31724000D01*
X57187091Y-31728085D01*
G37*
G36*
X58762091Y-31728085D02*
G01*
X58796069Y-31738393D01*
X58827390Y-31755134D01*
X58854839Y-31777661D01*
X58877366Y-31805110D01*
X58894107Y-31836431D01*
X58904415Y-31870409D01*
X58908500Y-31911890D01*
X58908500Y-32588110D01*
X58904415Y-32629591D01*
X58894107Y-32663569D01*
X58877366Y-32694890D01*
X58854839Y-32722339D01*
X58827390Y-32744866D01*
X58796069Y-32761607D01*
X58762091Y-32771915D01*
X58720610Y-32776000D01*
X58119390Y-32776000D01*
X58077909Y-32771915D01*
X58043931Y-32761607D01*
X58012610Y-32744866D01*
X57985161Y-32722339D01*
X57962634Y-32694890D01*
X57945893Y-32663569D01*
X57935585Y-32629591D01*
X57931500Y-32588110D01*
X57931500Y-31911890D01*
X57935585Y-31870409D01*
X57945893Y-31836431D01*
X57962634Y-31805110D01*
X57985161Y-31777661D01*
X58012610Y-31755134D01*
X58043931Y-31738393D01*
X58077909Y-31728085D01*
X58119390Y-31724000D01*
X58720610Y-31724000D01*
X58762091Y-31728085D01*
G37*
G36*
X63054591Y-31728085D02*
G01*
X63088569Y-31738393D01*
X63119890Y-31755134D01*
X63147339Y-31777661D01*
X63169866Y-31805110D01*
X63186607Y-31836431D01*
X63196915Y-31870409D01*
X63201000Y-31911890D01*
X63201000Y-32588110D01*
X63196915Y-32629591D01*
X63186607Y-32663569D01*
X63169866Y-32694890D01*
X63147339Y-32722339D01*
X63119890Y-32744866D01*
X63088569Y-32761607D01*
X63054591Y-32771915D01*
X63013110Y-32776000D01*
X62411890Y-32776000D01*
X62370409Y-32771915D01*
X62336431Y-32761607D01*
X62305110Y-32744866D01*
X62277661Y-32722339D01*
X62255134Y-32694890D01*
X62238393Y-32663569D01*
X62228085Y-32629591D01*
X62224000Y-32588110D01*
X62224000Y-31911890D01*
X62228085Y-31870409D01*
X62238393Y-31836431D01*
X62255134Y-31805110D01*
X62277661Y-31777661D01*
X62305110Y-31755134D01*
X62336431Y-31738393D01*
X62370409Y-31728085D01*
X62411890Y-31724000D01*
X63013110Y-31724000D01*
X63054591Y-31728085D01*
G37*
G36*
X64629591Y-31728085D02*
G01*
X64663569Y-31738393D01*
X64694890Y-31755134D01*
X64722339Y-31777661D01*
X64744866Y-31805110D01*
X64761607Y-31836431D01*
X64771915Y-31870409D01*
X64776000Y-31911890D01*
X64776000Y-32588110D01*
X64771915Y-32629591D01*
X64761607Y-32663569D01*
X64744866Y-32694890D01*
X64722339Y-32722339D01*
X64694890Y-32744866D01*
X64663569Y-32761607D01*
X64629591Y-32771915D01*
X64588110Y-32776000D01*
X63986890Y-32776000D01*
X63945409Y-32771915D01*
X63911431Y-32761607D01*
X63880110Y-32744866D01*
X63852661Y-32722339D01*
X63830134Y-32694890D01*
X63813393Y-32663569D01*
X63803085Y-32629591D01*
X63799000Y-32588110D01*
X63799000Y-31911890D01*
X63803085Y-31870409D01*
X63813393Y-31836431D01*
X63830134Y-31805110D01*
X63852661Y-31777661D01*
X63880110Y-31755134D01*
X63911431Y-31738393D01*
X63945409Y-31728085D01*
X63986890Y-31724000D01*
X64588110Y-31724000D01*
X64629591Y-31728085D01*
G37*
M02*
