M48
; DRILL file {KiCad (5.1.5)-2} date 12/04/19 23:20:29
; FORMAT={-:-/ absolute / inch / decimal}
; #@! TF.CreationDate,2019-12-04T23:20:29-05:00
; #@! TF.GenerationSoftware,Kicad,Pcbnew,(5.1.5)-2
FMAT,2
INCH
T1C0.0157
T2C0.0295
T3C0.0299
T4C0.0394
T5C0.2520
%
G90
G05
T1
X5.85Y-1.625
X6.2Y-1.6228
X6.55Y-1.6228
X6.9Y-1.6228
X7.25Y-1.6228
X7.6Y-1.6228
X7.95Y-1.6228
T2
X8.2Y-1.5
X8.2Y-1.55
X8.2Y-1.6
T3
X2.25Y-1.3937
X2.25Y-1.7063
X2.35Y-1.3937
X2.35Y-1.7063
X2.45Y-1.3937
X2.45Y-1.7063
X2.55Y-1.3937
X2.55Y-1.7063
X2.65Y-1.3937
X2.65Y-1.7063
X2.75Y-1.3937
X2.75Y-1.7063
X2.85Y-1.3937
X2.85Y-1.7063
X2.95Y-1.3937
X2.95Y-1.7063
X3.05Y-1.3937
X3.05Y-1.7063
X3.15Y-1.3937
X3.15Y-1.7063
X3.25Y-1.3937
X3.25Y-1.7063
X3.35Y-1.3937
X3.35Y-1.7063
X3.45Y-1.3937
X3.45Y-1.7063
X3.55Y-1.3937
X3.55Y-1.7063
T4
X4.3Y-1.55
X4.3Y-1.65
X3.8Y-1.3197
X3.8Y-1.4197
X3.8Y-1.5197
X3.8Y-1.6197
X3.8Y-1.7197
X3.8Y-1.8197
X2.05Y-1.3197
X2.05Y-1.4197
X2.05Y-1.5197
X2.05Y-1.6197
X2.05Y-1.7197
X2.05Y-1.8197
T5
X5.1181Y-1.5748
T0
M30
