%TF.GenerationSoftware,KiCad,Pcbnew,(5.1.5)-2*%
%TF.CreationDate,2019-12-04T23:20:31-05:00*%
%TF.ProjectId,fan pcb,66616e20-7063-4622-9e6b-696361645f70,rev?*%
%TF.SameCoordinates,Original*%
%TF.FileFunction,Copper,L2,Bot*%
%TF.FilePolarity,Positive*%
%FSLAX46Y46*%
G04 Gerber Fmt 4.6, Leading zero omitted, Abs format (unit mm)*
G04 Created by KiCad (PCBNEW (5.1.5)-2) date 2019-12-04 23:20:31*
%MOMM*%
%LPD*%
G04 APERTURE LIST*
%ADD10C,0.200000*%
%ADD11O,1.700000X1.700000*%
%ADD12R,1.700000X1.700000*%
%ADD13C,1.159000*%
%ADD14R,1.159000X1.159000*%
%ADD15C,0.100000*%
%ADD16O,1.300000X1.050000*%
%ADD17C,0.800000*%
%ADD18C,0.350000*%
%ADD19C,0.250000*%
G04 APERTURE END LIST*
D10*
X210000000Y-30000000D02*
X210000000Y-50000000D01*
X50000000Y-30000000D02*
X210000000Y-30000000D01*
X50000000Y-50000000D02*
X50000000Y-30000000D01*
X210000000Y-50000000D02*
X50000000Y-50000000D01*
D11*
X96520000Y-33520000D03*
X96520000Y-36060000D03*
X96520000Y-38600000D03*
X96520000Y-41140000D03*
X96520000Y-43680000D03*
D12*
X96520000Y-46220000D03*
D11*
X52070000Y-46220000D03*
X52070000Y-43680000D03*
X52070000Y-41140000D03*
X52070000Y-38600000D03*
X52070000Y-36060000D03*
D12*
X52070000Y-33520000D03*
D13*
X57150000Y-35401000D03*
X59690000Y-35401000D03*
X62230000Y-35401000D03*
X64770000Y-35401000D03*
X67310000Y-35401000D03*
X69850000Y-35401000D03*
X72390000Y-35401000D03*
X74930000Y-35401000D03*
X77470000Y-35401000D03*
X80010000Y-35401000D03*
X82550000Y-35401000D03*
X85090000Y-35401000D03*
X87630000Y-35401000D03*
X90170000Y-35401000D03*
X90170000Y-43339000D03*
X87630000Y-43339000D03*
X85090000Y-43339000D03*
X82550000Y-43339000D03*
X80010000Y-43339000D03*
X77470000Y-43339000D03*
X74930000Y-43339000D03*
X72390000Y-43339000D03*
X69850000Y-43339000D03*
X67310000Y-43339000D03*
X64770000Y-43339000D03*
X62230000Y-43339000D03*
X59690000Y-43339000D03*
D14*
X57150000Y-43339000D03*
D12*
X109220000Y-39370000D03*
D11*
X109220000Y-41910000D03*
%TA.AperFunction,ComponentPad*%
D15*
G36*
X208704594Y-40116203D02*
G01*
X208728853Y-40119802D01*
X208752642Y-40125761D01*
X208775733Y-40134023D01*
X208797902Y-40144508D01*
X208818937Y-40157116D01*
X208838635Y-40171725D01*
X208856806Y-40188194D01*
X208873275Y-40206365D01*
X208887884Y-40226063D01*
X208900492Y-40247098D01*
X208910977Y-40269267D01*
X208919239Y-40292358D01*
X208925198Y-40316147D01*
X208928797Y-40340406D01*
X208930000Y-40364900D01*
X208930000Y-40915100D01*
X208928797Y-40939594D01*
X208925198Y-40963853D01*
X208919239Y-40987642D01*
X208910977Y-41010733D01*
X208900492Y-41032902D01*
X208887884Y-41053937D01*
X208873275Y-41073635D01*
X208856806Y-41091806D01*
X208838635Y-41108275D01*
X208818937Y-41122884D01*
X208797902Y-41135492D01*
X208775733Y-41145977D01*
X208752642Y-41154239D01*
X208728853Y-41160198D01*
X208704594Y-41163797D01*
X208680100Y-41165000D01*
X207879900Y-41165000D01*
X207855406Y-41163797D01*
X207831147Y-41160198D01*
X207807358Y-41154239D01*
X207784267Y-41145977D01*
X207762098Y-41135492D01*
X207741063Y-41122884D01*
X207721365Y-41108275D01*
X207703194Y-41091806D01*
X207686725Y-41073635D01*
X207672116Y-41053937D01*
X207659508Y-41032902D01*
X207649023Y-41010733D01*
X207640761Y-40987642D01*
X207634802Y-40963853D01*
X207631203Y-40939594D01*
X207630000Y-40915100D01*
X207630000Y-40364900D01*
X207631203Y-40340406D01*
X207634802Y-40316147D01*
X207640761Y-40292358D01*
X207649023Y-40269267D01*
X207659508Y-40247098D01*
X207672116Y-40226063D01*
X207686725Y-40206365D01*
X207703194Y-40188194D01*
X207721365Y-40171725D01*
X207741063Y-40157116D01*
X207762098Y-40144508D01*
X207784267Y-40134023D01*
X207807358Y-40125761D01*
X207831147Y-40119802D01*
X207855406Y-40116203D01*
X207879900Y-40115000D01*
X208680100Y-40115000D01*
X208704594Y-40116203D01*
G37*
%TD.AperFunction*%
D16*
X208280000Y-38100000D03*
X208280000Y-39370000D03*
D17*
X148590000Y-41275000D03*
X157480000Y-41219991D03*
X166370000Y-41219991D03*
X184150000Y-41219991D03*
X193040000Y-41219991D03*
X201930000Y-41219991D03*
X175260000Y-41219991D03*
D18*
X84931000Y-40640000D02*
X87630000Y-43339000D01*
X62389000Y-40640000D02*
X84931000Y-40640000D01*
X95670001Y-44529999D02*
X96520000Y-43680000D01*
X88820999Y-44529999D02*
X95670001Y-44529999D01*
X87630000Y-43339000D02*
X88820999Y-44529999D01*
X97722081Y-43680000D02*
X96520000Y-43680000D01*
X108652081Y-43680000D02*
X97722081Y-43680000D01*
X109220000Y-43112081D02*
X108652081Y-43680000D01*
X109220000Y-41910000D02*
X109220000Y-43112081D01*
X110422081Y-41910000D02*
X115192091Y-46680010D01*
X109220000Y-41910000D02*
X110422081Y-41910000D01*
X115192091Y-46680010D02*
X143184990Y-46680010D01*
X201930000Y-41275000D02*
X201930000Y-41275000D01*
X143184990Y-46680010D02*
X148590000Y-41275000D01*
X148590000Y-41275000D02*
X148590000Y-41275000D01*
X157424991Y-41275000D02*
X157480000Y-41219991D01*
X148590000Y-41275000D02*
X157424991Y-41275000D01*
X157480000Y-41219991D02*
X158045685Y-41219991D01*
X158045685Y-41219991D02*
X166370000Y-41219991D01*
X184150000Y-41219991D02*
X184715685Y-41219991D01*
X184715685Y-41219991D02*
X193040000Y-41219991D01*
X193605685Y-41219991D02*
X201930000Y-41219991D01*
X193040000Y-41219991D02*
X193605685Y-41219991D01*
X166370000Y-41219991D02*
X166935685Y-41219991D01*
X184150000Y-41219991D02*
X183584315Y-41219991D01*
X183584315Y-41219991D02*
X175260000Y-41219991D01*
X166935685Y-41219991D02*
X175260000Y-41219991D01*
X57150000Y-35401000D02*
X62389000Y-40640000D01*
X201985009Y-41275000D02*
X201930000Y-41219991D01*
X208280000Y-40640000D02*
X207645000Y-41275000D01*
X207645000Y-41275000D02*
X201985009Y-41275000D01*
D19*
X53272081Y-43680000D02*
X55312081Y-45720000D01*
X52070000Y-43680000D02*
X53272081Y-43680000D01*
X64929000Y-45720000D02*
X67310000Y-43339000D01*
X55312081Y-45720000D02*
X64929000Y-45720000D01*
X56320500Y-43339000D02*
X54610000Y-41628500D01*
X57150000Y-43339000D02*
X56320500Y-43339000D01*
X53170000Y-33520000D02*
X52070000Y-33520000D01*
X54610000Y-34960000D02*
X53170000Y-33520000D01*
X54610000Y-41628500D02*
X54610000Y-34960000D01*
M02*
