%TF.GenerationSoftware,KiCad,Pcbnew,(5.1.5)-2*%
%TF.CreationDate,2019-12-04T23:20:31-05:00*%
%TF.ProjectId,fan pcb,66616e20-7063-4622-9e6b-696361645f70,rev?*%
%TF.SameCoordinates,Original*%
%TF.FileFunction,Copper,L1,Top*%
%TF.FilePolarity,Positive*%
%FSLAX46Y46*%
G04 Gerber Fmt 4.6, Leading zero omitted, Abs format (unit mm)*
G04 Created by KiCad (PCBNEW (5.1.5)-2) date 2019-12-04 23:20:31*
%MOMM*%
%LPD*%
G04 APERTURE LIST*
%ADD10C,0.200000*%
%ADD11O,1.700000X1.700000*%
%ADD12R,1.700000X1.700000*%
%ADD13C,1.159000*%
%ADD14R,1.159000X1.159000*%
%ADD15C,0.100000*%
%ADD16R,2.000000X1.100000*%
%ADD17O,1.300000X1.050000*%
%ADD18C,0.800000*%
%ADD19C,0.250000*%
%ADD20C,0.350000*%
G04 APERTURE END LIST*
D10*
X210000000Y-30000000D02*
X210000000Y-50000000D01*
X50000000Y-30000000D02*
X210000000Y-30000000D01*
X50000000Y-50000000D02*
X50000000Y-30000000D01*
X210000000Y-50000000D02*
X50000000Y-50000000D01*
D11*
X96520000Y-33520000D03*
X96520000Y-36060000D03*
X96520000Y-38600000D03*
X96520000Y-41140000D03*
X96520000Y-43680000D03*
D12*
X96520000Y-46220000D03*
D11*
X52070000Y-46220000D03*
X52070000Y-43680000D03*
X52070000Y-41140000D03*
X52070000Y-38600000D03*
X52070000Y-36060000D03*
D12*
X52070000Y-33520000D03*
D13*
X57150000Y-35401000D03*
X59690000Y-35401000D03*
X62230000Y-35401000D03*
X64770000Y-35401000D03*
X67310000Y-35401000D03*
X69850000Y-35401000D03*
X72390000Y-35401000D03*
X74930000Y-35401000D03*
X77470000Y-35401000D03*
X80010000Y-35401000D03*
X82550000Y-35401000D03*
X85090000Y-35401000D03*
X87630000Y-35401000D03*
X90170000Y-35401000D03*
X90170000Y-43339000D03*
X87630000Y-43339000D03*
X85090000Y-43339000D03*
X82550000Y-43339000D03*
X80010000Y-43339000D03*
X77470000Y-43339000D03*
X74930000Y-43339000D03*
X72390000Y-43339000D03*
X69850000Y-43339000D03*
X67310000Y-43339000D03*
X64770000Y-43339000D03*
X62230000Y-43339000D03*
X59690000Y-43339000D03*
D14*
X57150000Y-43339000D03*
%TA.AperFunction,SMDPad,CuDef*%
D15*
G36*
X64527691Y-31776053D02*
G01*
X64548926Y-31779203D01*
X64569750Y-31784419D01*
X64589962Y-31791651D01*
X64609368Y-31800830D01*
X64627781Y-31811866D01*
X64645024Y-31824654D01*
X64660930Y-31839070D01*
X64675346Y-31854976D01*
X64688134Y-31872219D01*
X64699170Y-31890632D01*
X64708349Y-31910038D01*
X64715581Y-31930250D01*
X64720797Y-31951074D01*
X64723947Y-31972309D01*
X64725000Y-31993750D01*
X64725000Y-32506250D01*
X64723947Y-32527691D01*
X64720797Y-32548926D01*
X64715581Y-32569750D01*
X64708349Y-32589962D01*
X64699170Y-32609368D01*
X64688134Y-32627781D01*
X64675346Y-32645024D01*
X64660930Y-32660930D01*
X64645024Y-32675346D01*
X64627781Y-32688134D01*
X64609368Y-32699170D01*
X64589962Y-32708349D01*
X64569750Y-32715581D01*
X64548926Y-32720797D01*
X64527691Y-32723947D01*
X64506250Y-32725000D01*
X64068750Y-32725000D01*
X64047309Y-32723947D01*
X64026074Y-32720797D01*
X64005250Y-32715581D01*
X63985038Y-32708349D01*
X63965632Y-32699170D01*
X63947219Y-32688134D01*
X63929976Y-32675346D01*
X63914070Y-32660930D01*
X63899654Y-32645024D01*
X63886866Y-32627781D01*
X63875830Y-32609368D01*
X63866651Y-32589962D01*
X63859419Y-32569750D01*
X63854203Y-32548926D01*
X63851053Y-32527691D01*
X63850000Y-32506250D01*
X63850000Y-31993750D01*
X63851053Y-31972309D01*
X63854203Y-31951074D01*
X63859419Y-31930250D01*
X63866651Y-31910038D01*
X63875830Y-31890632D01*
X63886866Y-31872219D01*
X63899654Y-31854976D01*
X63914070Y-31839070D01*
X63929976Y-31824654D01*
X63947219Y-31811866D01*
X63965632Y-31800830D01*
X63985038Y-31791651D01*
X64005250Y-31784419D01*
X64026074Y-31779203D01*
X64047309Y-31776053D01*
X64068750Y-31775000D01*
X64506250Y-31775000D01*
X64527691Y-31776053D01*
G37*
%TD.AperFunction*%
%TA.AperFunction,SMDPad,CuDef*%
G36*
X62952691Y-31776053D02*
G01*
X62973926Y-31779203D01*
X62994750Y-31784419D01*
X63014962Y-31791651D01*
X63034368Y-31800830D01*
X63052781Y-31811866D01*
X63070024Y-31824654D01*
X63085930Y-31839070D01*
X63100346Y-31854976D01*
X63113134Y-31872219D01*
X63124170Y-31890632D01*
X63133349Y-31910038D01*
X63140581Y-31930250D01*
X63145797Y-31951074D01*
X63148947Y-31972309D01*
X63150000Y-31993750D01*
X63150000Y-32506250D01*
X63148947Y-32527691D01*
X63145797Y-32548926D01*
X63140581Y-32569750D01*
X63133349Y-32589962D01*
X63124170Y-32609368D01*
X63113134Y-32627781D01*
X63100346Y-32645024D01*
X63085930Y-32660930D01*
X63070024Y-32675346D01*
X63052781Y-32688134D01*
X63034368Y-32699170D01*
X63014962Y-32708349D01*
X62994750Y-32715581D01*
X62973926Y-32720797D01*
X62952691Y-32723947D01*
X62931250Y-32725000D01*
X62493750Y-32725000D01*
X62472309Y-32723947D01*
X62451074Y-32720797D01*
X62430250Y-32715581D01*
X62410038Y-32708349D01*
X62390632Y-32699170D01*
X62372219Y-32688134D01*
X62354976Y-32675346D01*
X62339070Y-32660930D01*
X62324654Y-32645024D01*
X62311866Y-32627781D01*
X62300830Y-32609368D01*
X62291651Y-32589962D01*
X62284419Y-32569750D01*
X62279203Y-32548926D01*
X62276053Y-32527691D01*
X62275000Y-32506250D01*
X62275000Y-31993750D01*
X62276053Y-31972309D01*
X62279203Y-31951074D01*
X62284419Y-31930250D01*
X62291651Y-31910038D01*
X62300830Y-31890632D01*
X62311866Y-31872219D01*
X62324654Y-31854976D01*
X62339070Y-31839070D01*
X62354976Y-31824654D01*
X62372219Y-31811866D01*
X62390632Y-31800830D01*
X62410038Y-31791651D01*
X62430250Y-31784419D01*
X62451074Y-31779203D01*
X62472309Y-31776053D01*
X62493750Y-31775000D01*
X62931250Y-31775000D01*
X62952691Y-31776053D01*
G37*
%TD.AperFunction*%
%TA.AperFunction,SMDPad,CuDef*%
G36*
X58660191Y-31776053D02*
G01*
X58681426Y-31779203D01*
X58702250Y-31784419D01*
X58722462Y-31791651D01*
X58741868Y-31800830D01*
X58760281Y-31811866D01*
X58777524Y-31824654D01*
X58793430Y-31839070D01*
X58807846Y-31854976D01*
X58820634Y-31872219D01*
X58831670Y-31890632D01*
X58840849Y-31910038D01*
X58848081Y-31930250D01*
X58853297Y-31951074D01*
X58856447Y-31972309D01*
X58857500Y-31993750D01*
X58857500Y-32506250D01*
X58856447Y-32527691D01*
X58853297Y-32548926D01*
X58848081Y-32569750D01*
X58840849Y-32589962D01*
X58831670Y-32609368D01*
X58820634Y-32627781D01*
X58807846Y-32645024D01*
X58793430Y-32660930D01*
X58777524Y-32675346D01*
X58760281Y-32688134D01*
X58741868Y-32699170D01*
X58722462Y-32708349D01*
X58702250Y-32715581D01*
X58681426Y-32720797D01*
X58660191Y-32723947D01*
X58638750Y-32725000D01*
X58201250Y-32725000D01*
X58179809Y-32723947D01*
X58158574Y-32720797D01*
X58137750Y-32715581D01*
X58117538Y-32708349D01*
X58098132Y-32699170D01*
X58079719Y-32688134D01*
X58062476Y-32675346D01*
X58046570Y-32660930D01*
X58032154Y-32645024D01*
X58019366Y-32627781D01*
X58008330Y-32609368D01*
X57999151Y-32589962D01*
X57991919Y-32569750D01*
X57986703Y-32548926D01*
X57983553Y-32527691D01*
X57982500Y-32506250D01*
X57982500Y-31993750D01*
X57983553Y-31972309D01*
X57986703Y-31951074D01*
X57991919Y-31930250D01*
X57999151Y-31910038D01*
X58008330Y-31890632D01*
X58019366Y-31872219D01*
X58032154Y-31854976D01*
X58046570Y-31839070D01*
X58062476Y-31824654D01*
X58079719Y-31811866D01*
X58098132Y-31800830D01*
X58117538Y-31791651D01*
X58137750Y-31784419D01*
X58158574Y-31779203D01*
X58179809Y-31776053D01*
X58201250Y-31775000D01*
X58638750Y-31775000D01*
X58660191Y-31776053D01*
G37*
%TD.AperFunction*%
%TA.AperFunction,SMDPad,CuDef*%
G36*
X57085191Y-31776053D02*
G01*
X57106426Y-31779203D01*
X57127250Y-31784419D01*
X57147462Y-31791651D01*
X57166868Y-31800830D01*
X57185281Y-31811866D01*
X57202524Y-31824654D01*
X57218430Y-31839070D01*
X57232846Y-31854976D01*
X57245634Y-31872219D01*
X57256670Y-31890632D01*
X57265849Y-31910038D01*
X57273081Y-31930250D01*
X57278297Y-31951074D01*
X57281447Y-31972309D01*
X57282500Y-31993750D01*
X57282500Y-32506250D01*
X57281447Y-32527691D01*
X57278297Y-32548926D01*
X57273081Y-32569750D01*
X57265849Y-32589962D01*
X57256670Y-32609368D01*
X57245634Y-32627781D01*
X57232846Y-32645024D01*
X57218430Y-32660930D01*
X57202524Y-32675346D01*
X57185281Y-32688134D01*
X57166868Y-32699170D01*
X57147462Y-32708349D01*
X57127250Y-32715581D01*
X57106426Y-32720797D01*
X57085191Y-32723947D01*
X57063750Y-32725000D01*
X56626250Y-32725000D01*
X56604809Y-32723947D01*
X56583574Y-32720797D01*
X56562750Y-32715581D01*
X56542538Y-32708349D01*
X56523132Y-32699170D01*
X56504719Y-32688134D01*
X56487476Y-32675346D01*
X56471570Y-32660930D01*
X56457154Y-32645024D01*
X56444366Y-32627781D01*
X56433330Y-32609368D01*
X56424151Y-32589962D01*
X56416919Y-32569750D01*
X56411703Y-32548926D01*
X56408553Y-32527691D01*
X56407500Y-32506250D01*
X56407500Y-31993750D01*
X56408553Y-31972309D01*
X56411703Y-31951074D01*
X56416919Y-31930250D01*
X56424151Y-31910038D01*
X56433330Y-31890632D01*
X56444366Y-31872219D01*
X56457154Y-31854976D01*
X56471570Y-31839070D01*
X56487476Y-31824654D01*
X56504719Y-31811866D01*
X56523132Y-31800830D01*
X56542538Y-31791651D01*
X56562750Y-31784419D01*
X56583574Y-31779203D01*
X56604809Y-31776053D01*
X56626250Y-31775000D01*
X57063750Y-31775000D01*
X57085191Y-31776053D01*
G37*
%TD.AperFunction*%
D16*
X201790000Y-37670000D03*
X201790000Y-39370000D03*
X201790000Y-41070000D03*
X196990000Y-41070000D03*
X196990000Y-39370000D03*
X196990000Y-37670000D03*
X192900000Y-37670000D03*
X192900000Y-39370000D03*
X192900000Y-41070000D03*
X188100000Y-41070000D03*
X188100000Y-39370000D03*
X188100000Y-37670000D03*
D12*
X109220000Y-39370000D03*
D11*
X109220000Y-41910000D03*
%TA.AperFunction,ComponentPad*%
D15*
G36*
X208704594Y-40116203D02*
G01*
X208728853Y-40119802D01*
X208752642Y-40125761D01*
X208775733Y-40134023D01*
X208797902Y-40144508D01*
X208818937Y-40157116D01*
X208838635Y-40171725D01*
X208856806Y-40188194D01*
X208873275Y-40206365D01*
X208887884Y-40226063D01*
X208900492Y-40247098D01*
X208910977Y-40269267D01*
X208919239Y-40292358D01*
X208925198Y-40316147D01*
X208928797Y-40340406D01*
X208930000Y-40364900D01*
X208930000Y-40915100D01*
X208928797Y-40939594D01*
X208925198Y-40963853D01*
X208919239Y-40987642D01*
X208910977Y-41010733D01*
X208900492Y-41032902D01*
X208887884Y-41053937D01*
X208873275Y-41073635D01*
X208856806Y-41091806D01*
X208838635Y-41108275D01*
X208818937Y-41122884D01*
X208797902Y-41135492D01*
X208775733Y-41145977D01*
X208752642Y-41154239D01*
X208728853Y-41160198D01*
X208704594Y-41163797D01*
X208680100Y-41165000D01*
X207879900Y-41165000D01*
X207855406Y-41163797D01*
X207831147Y-41160198D01*
X207807358Y-41154239D01*
X207784267Y-41145977D01*
X207762098Y-41135492D01*
X207741063Y-41122884D01*
X207721365Y-41108275D01*
X207703194Y-41091806D01*
X207686725Y-41073635D01*
X207672116Y-41053937D01*
X207659508Y-41032902D01*
X207649023Y-41010733D01*
X207640761Y-40987642D01*
X207634802Y-40963853D01*
X207631203Y-40939594D01*
X207630000Y-40915100D01*
X207630000Y-40364900D01*
X207631203Y-40340406D01*
X207634802Y-40316147D01*
X207640761Y-40292358D01*
X207649023Y-40269267D01*
X207659508Y-40247098D01*
X207672116Y-40226063D01*
X207686725Y-40206365D01*
X207703194Y-40188194D01*
X207721365Y-40171725D01*
X207741063Y-40157116D01*
X207762098Y-40144508D01*
X207784267Y-40134023D01*
X207807358Y-40125761D01*
X207831147Y-40119802D01*
X207855406Y-40116203D01*
X207879900Y-40115000D01*
X208680100Y-40115000D01*
X208704594Y-40116203D01*
G37*
%TD.AperFunction*%
D17*
X208280000Y-38100000D03*
X208280000Y-39370000D03*
D16*
X184010000Y-37670000D03*
X184010000Y-39370000D03*
X184010000Y-41070000D03*
X179210000Y-41070000D03*
X179210000Y-39370000D03*
X179210000Y-37670000D03*
X175120000Y-37670000D03*
X175120000Y-39370000D03*
X175120000Y-41070000D03*
X170320000Y-41070000D03*
X170320000Y-39370000D03*
X170320000Y-37670000D03*
X166230000Y-37670000D03*
X166230000Y-39370000D03*
X166230000Y-41070000D03*
X161430000Y-41070000D03*
X161430000Y-39370000D03*
X161430000Y-37670000D03*
X157480000Y-37670000D03*
X157480000Y-39370000D03*
X157480000Y-41070000D03*
X152680000Y-41070000D03*
X152680000Y-39370000D03*
X152680000Y-37670000D03*
X148590000Y-37670000D03*
X148590000Y-39370000D03*
X148590000Y-41070000D03*
X143790000Y-41070000D03*
X143790000Y-39370000D03*
X143790000Y-37670000D03*
D18*
X148590000Y-41275000D03*
X157480000Y-41219991D03*
X166370000Y-41219991D03*
X184150000Y-41219991D03*
X193040000Y-41219991D03*
X201930000Y-41219991D03*
X175260000Y-41219991D03*
D19*
X149840000Y-37670000D02*
X152680000Y-37670000D01*
X148590000Y-37670000D02*
X149840000Y-37670000D01*
X148590000Y-39370000D02*
X152680000Y-39370000D01*
D20*
X56845000Y-35096000D02*
X57150000Y-35401000D01*
X56845000Y-32250000D02*
X56845000Y-35096000D01*
X56491000Y-36060000D02*
X57150000Y-35401000D01*
X52070000Y-36060000D02*
X56491000Y-36060000D01*
X57220010Y-31399990D02*
X56845000Y-31775000D01*
X61424990Y-31399990D02*
X57220010Y-31399990D01*
X62275000Y-32250000D02*
X61424990Y-31399990D01*
X56845000Y-31775000D02*
X56845000Y-32250000D01*
X62712500Y-32250000D02*
X62275000Y-32250000D01*
X58420000Y-34131000D02*
X59690000Y-35401000D01*
X58420000Y-32250000D02*
X58420000Y-34131000D01*
X57340999Y-37750001D02*
X59110501Y-35980499D01*
X52919999Y-37750001D02*
X57340999Y-37750001D01*
X59110501Y-35980499D02*
X59690000Y-35401000D01*
X52070000Y-38600000D02*
X52919999Y-37750001D01*
X59690000Y-35401000D02*
X63659000Y-39370000D01*
X70961000Y-39370000D02*
X74930000Y-43339000D01*
X63659000Y-39370000D02*
X70961000Y-39370000D01*
X77129000Y-41140000D02*
X96520000Y-41140000D01*
X74930000Y-43339000D02*
X77129000Y-41140000D01*
X117753600Y-46803600D02*
X136806400Y-46803600D01*
X110320000Y-39370000D02*
X117753600Y-46803600D01*
X109220000Y-39370000D02*
X110320000Y-39370000D01*
X136806400Y-46803600D02*
X142540000Y-41070000D01*
X143790000Y-41070000D02*
X142540000Y-41070000D01*
X161354999Y-41945001D02*
X161430000Y-41870000D01*
X152680000Y-41870000D02*
X152755001Y-41945001D01*
X152680000Y-41070000D02*
X152680000Y-41870000D01*
X170244999Y-41945001D02*
X170320000Y-41870000D01*
X161430000Y-41070000D02*
X161430000Y-41870000D01*
X161430000Y-41870000D02*
X161505001Y-41945001D01*
X179210000Y-41870000D02*
X179285001Y-41945001D01*
X188024999Y-41945001D02*
X188100000Y-41870000D01*
X188100000Y-41070000D02*
X188100000Y-41870000D01*
X196914999Y-41945001D02*
X196990000Y-41870000D01*
X188100000Y-41870000D02*
X188175001Y-41945001D01*
X207380000Y-39370000D02*
X208280000Y-39370000D01*
X204804999Y-41945001D02*
X207380000Y-39370000D01*
X196990000Y-41870000D02*
X197065001Y-41945001D01*
X196990000Y-41070000D02*
X196990000Y-41870000D01*
X98290000Y-39370000D02*
X96520000Y-41140000D01*
X109220000Y-39370000D02*
X98290000Y-39370000D01*
X179210000Y-41870000D02*
X179210000Y-41070000D01*
X179134999Y-41945001D02*
X179210000Y-41870000D01*
X170320000Y-41870000D02*
X170395001Y-41945001D01*
X170320000Y-41070000D02*
X170320000Y-41870000D01*
X204205000Y-42545000D02*
X204804999Y-41945001D01*
X197065001Y-41945001D02*
X197665000Y-42545000D01*
X197665000Y-42545000D02*
X204205000Y-42545000D01*
X196315000Y-42545000D02*
X196914999Y-41945001D01*
X188175001Y-41945001D02*
X188775000Y-42545000D01*
X188775000Y-42545000D02*
X196315000Y-42545000D01*
X187425000Y-42545000D02*
X188024999Y-41945001D01*
X179285001Y-41945001D02*
X179885000Y-42545000D01*
X179885000Y-42545000D02*
X187425000Y-42545000D01*
X170395001Y-41945001D02*
X170995000Y-42545000D01*
X178535000Y-42545000D02*
X179134999Y-41945001D01*
X170995000Y-42545000D02*
X178535000Y-42545000D01*
X169645000Y-42545000D02*
X170244999Y-41945001D01*
X161505001Y-41945001D02*
X162105000Y-42545000D01*
X162105000Y-42545000D02*
X169645000Y-42545000D01*
X160755000Y-42545000D02*
X161354999Y-41945001D01*
X152755001Y-41945001D02*
X153355000Y-42545000D01*
X153355000Y-42545000D02*
X160755000Y-42545000D01*
X154030000Y-41070000D02*
X152680000Y-41070000D01*
X154305000Y-40795000D02*
X154030000Y-41070000D01*
X154305000Y-36830000D02*
X154305000Y-40795000D01*
X143790000Y-41070000D02*
X142440000Y-41070000D01*
X142440000Y-41070000D02*
X142240000Y-40870000D01*
X142240000Y-40870000D02*
X142240000Y-36830000D01*
X142240000Y-36830000D02*
X142875000Y-36195000D01*
X153670000Y-36195000D02*
X154305000Y-36830000D01*
X142875000Y-36195000D02*
X153670000Y-36195000D01*
D19*
X158730000Y-37670000D02*
X161430000Y-37670000D01*
X157480000Y-37670000D02*
X158730000Y-37670000D01*
X157480000Y-39370000D02*
X161430000Y-39370000D01*
X167480000Y-37670000D02*
X170320000Y-37670000D01*
X166230000Y-37670000D02*
X167480000Y-37670000D01*
X166230000Y-39370000D02*
X170320000Y-39370000D01*
X176370000Y-37670000D02*
X179210000Y-37670000D01*
X175120000Y-37670000D02*
X176370000Y-37670000D01*
X175120000Y-39370000D02*
X179210000Y-39370000D01*
X185260000Y-37670000D02*
X188100000Y-37670000D01*
X184010000Y-37670000D02*
X185260000Y-37670000D01*
X184010000Y-39370000D02*
X188100000Y-39370000D01*
X81526001Y-47395001D02*
X78049499Y-43918499D01*
X139600001Y-47395001D02*
X81526001Y-47395001D01*
X145115001Y-39445001D02*
X145115001Y-41880001D01*
X145040000Y-39370000D02*
X145115001Y-39445001D01*
X143790000Y-39370000D02*
X145040000Y-39370000D01*
X145115001Y-41880001D02*
X139600001Y-47395001D01*
X78049499Y-43918499D02*
X77470000Y-43339000D01*
X62809499Y-43918499D02*
X62230000Y-43339000D01*
X143790000Y-37670000D02*
X145040000Y-37670000D01*
X66736012Y-47845012D02*
X62809499Y-43918499D01*
X139786401Y-47845012D02*
X66736012Y-47845012D01*
X145565012Y-42066401D02*
X139786401Y-47845012D01*
X145040000Y-37670000D02*
X145565012Y-38195012D01*
X145565012Y-38195012D02*
X145565012Y-42066401D01*
X64287500Y-34918500D02*
X64770000Y-35401000D01*
X64287500Y-32250000D02*
X64287500Y-34918500D01*
X203205000Y-32250000D02*
X64725000Y-32250000D01*
X64725000Y-32250000D02*
X64287500Y-32250000D01*
X208280000Y-37325000D02*
X203205000Y-32250000D01*
X208280000Y-38100000D02*
X208280000Y-37325000D01*
X95317919Y-38600000D02*
X94817919Y-38100000D01*
X96520000Y-38600000D02*
X95317919Y-38600000D01*
X72549000Y-38100000D02*
X69850000Y-35401000D01*
X94817919Y-38100000D02*
X72549000Y-38100000D01*
X89138999Y-36909999D02*
X95670001Y-36909999D01*
X95670001Y-36909999D02*
X96520000Y-36060000D01*
X87630000Y-35401000D02*
X89138999Y-36909999D01*
X192900000Y-37670000D02*
X196990000Y-37670000D01*
X192900000Y-39370000D02*
X196990000Y-39370000D01*
X53272081Y-41140000D02*
X54042081Y-41910000D01*
X52070000Y-41140000D02*
X53272081Y-41140000D01*
X63341000Y-41910000D02*
X64770000Y-43339000D01*
X54042081Y-41910000D02*
X63341000Y-41910000D01*
M02*
